<svg width="519" height="106" viewBox="0 0 519 106" fill="none" xmlns="http://www.w3.org/2000/svg">
<path d="M518.06 84.85V81.5833H515.738C513.184 81.5833 511.791 80.5333 509.702 77.7333L497.978 62.5666L499.255 61.1666C500.88 59.4166 503.318 57.9 508.774 57.9H511.327V54.6333H491.13V57.9H492.871C495.889 57.9 495.193 60.5833 493.451 61.9833L485.094 68.6333V64.7833V38.1833H463.388V41.5666H465.709C467.799 41.5666 470.004 41.9166 470.004 46.4666V75.75C470.004 79.25 470.468 81.5833 466.638 81.5833H465.477V84.85H489.621V81.5833H488.46C486.023 81.5833 485.326 80.65 485.326 76.9166V72.7166L487.067 71.2L491.13 76.2166C492.755 78.0833 494.612 81.4666 492.639 81.4666H492.059V84.7333L518.06 84.85ZM35.764 81.5833H31.0049H30.0763V61.1666H37.0409C41.2196 61.1666 45.1662 65.0166 45.1662 70.9666C45.2823 77.5 42.1482 81.5833 35.764 81.5833ZM0.941269 41.5666H5.58431C9.87912 41.5666 10.5756 46.35 10.5756 49.15V74C10.5756 78.7833 9.06658 81.5833 3.95924 81.5833H0.941269V84.85H39.8267C42.3804 84.85 45.3983 84.7333 48.7645 84.6166C52.2468 84.5 55.1487 84.0333 57.4702 83.1C62.5776 81.2333 65.7116 77.5 65.7116 71.9C65.5956 63.9666 59.5596 60.8166 52.479 59.8833C50.5057 59.65 47.6038 59.5333 43.7733 59.5333V59.0666C47.0234 59.0666 51.3182 58.95 55.0327 57.7833C58.9792 56.5 62.2294 53.35 62.2294 48.45C62.3454 41.6833 54.9166 39.1166 49.2289 38.5333C46.443 38.1833 42.4965 38.0666 37.5052 38.0666L0.825195 38.1833V41.5666H0.941269ZM30.0763 57.7833V41.5666H33.4425C37.7373 41.6833 42.7286 44.0166 42.6125 49.3833C42.4965 53.7 40.1749 57.7833 36.3444 57.7833H30.0763ZM121.312 61.8666C119.107 59.4166 115.973 57.0833 112.49 55.8C109.008 54.5166 105.642 53.35 102.392 52.4166C99.1415 51.4833 96.5878 50.6666 94.8467 49.9666C92.5252 49.15 89.0429 48.45 90.0876 45.3C90.5519 43.7833 93.2216 41.5666 97.2843 41.5666C102.276 41.5666 106.454 42.85 109.704 45.1833C112.722 47.2833 114.928 50.2 116.205 53.4666H119.339L119.455 37.8333H116.321C114.812 42.3833 111.097 40.8666 109.124 40.1666C108.079 39.8166 107.151 39.4666 105.642 39C102.74 38.1833 99.838 37.6 96.82 37.6C91.3644 37.6 86.4892 38.8833 82.3105 41.8C78.1318 44.7166 76.0424 48.3333 76.0424 52.5333C76.0424 57.9 79.2925 61.9833 81.9623 63.3833C85.9088 65.3666 89.7393 66.8833 93.2216 68.05C96.82 69.2166 100.186 70.2666 103.32 71.3166C106.454 72.25 110.053 73.1833 109.588 76.45C109.124 79.6 104.365 80.7666 101.231 80.65C97.5164 80.65 93.3377 79.4833 89.6233 77.3833C84.2838 74.5833 79.8729 69.9166 78.5961 64.0833H75.3459V85.6666H78.5961C78.7121 82.6333 79.989 80.7666 82.7748 80.65C85.6767 80.4166 87.5339 81.8166 89.7393 82.9833C94.1502 85.3166 98.5611 85.7833 102.856 85.7833C112.955 85.7833 124.33 81.2333 124.214 70.6166C124.214 66.8833 123.634 64.4333 121.312 61.8666ZM162.519 81.5833H157.76H156.831V61.1666H163.796C167.975 61.1666 171.921 65.0166 171.921 70.9666C171.921 77.5 168.787 81.5833 162.519 81.5833ZM127.58 41.5666H132.223C136.518 41.5666 137.214 46.35 137.214 49.15V74C137.214 78.7833 135.705 81.5833 130.598 81.5833H127.58V84.85H166.466C169.019 84.85 172.037 84.7333 175.403 84.6166C178.886 84.5 181.788 84.0333 184.109 83.1C189.216 81.2333 192.35 77.5 192.35 71.9C192.234 63.9666 186.198 60.8166 179.118 59.8833C177.145 59.65 174.243 59.5333 170.412 59.5333V59.0666C173.662 59.0666 177.957 58.95 181.672 57.7833C185.618 56.5 188.868 53.35 188.868 48.45C188.984 41.6833 181.555 39.1166 175.868 38.5333C173.082 38.1833 169.135 38.0666 164.144 38.0666L127.58 38.3V41.5666ZM156.715 57.7833V41.5666H160.081C164.376 41.6833 169.367 44.0166 169.251 49.3833C169.135 53.7 166.814 57.7833 162.983 57.7833H156.715ZM332.454 81.5833H327.695H326.766V61.1666H333.731C337.91 61.1666 341.856 65.0166 341.856 70.9666C341.856 77.5 338.722 81.5833 332.454 81.5833ZM297.515 41.5666H302.158C306.453 41.5666 307.15 46.35 307.15 49.15V74C307.15 78.7833 305.641 81.5833 300.533 81.5833H297.515V84.85H336.517C339.07 84.85 342.088 84.7333 345.455 84.6166C348.937 84.5 351.839 84.0333 354.16 83.1C359.268 81.2333 362.402 77.5 362.402 71.9C362.286 63.9666 356.25 60.8166 349.169 59.8833C347.196 59.65 344.294 59.5333 340.463 59.5333V59.0666C343.713 59.0666 348.008 58.95 351.723 57.7833C355.669 56.5 358.919 53.35 358.919 48.45C359.036 41.6833 351.607 39.1166 345.919 38.5333C343.133 38.1833 339.187 38.0666 334.195 38.0666L297.515 38.1833V41.5666ZM326.65 57.7833V41.5666H330.017C334.311 41.6833 339.303 44.0166 339.187 49.3833C339.07 53.7 336.749 57.7833 332.918 57.7833H326.65ZM384.108 79.7166C382.251 79.7166 380.626 78.3166 380.51 75.6333C380.51 73.4166 381.902 71.6666 383.528 70.7333C384.92 69.9166 386.546 69.2166 387.938 68.5166V68.1666V76.1C387.242 77.85 386.081 79.7166 384.108 79.7166ZM403.028 75.4V64.6666C403.028 60.9333 400.707 57.2 397.689 55.9166C393.626 54.1666 388.867 54.05 385.733 53.9333C380.161 53.8166 376.215 54.6333 372.5 56.2666C368.786 57.9 366.813 60.1166 366.929 62.45C367.045 65.6 371.107 66.8833 373.661 66.8833C376.331 66.8833 381.902 66.0666 381.902 62.6833C381.902 60.5833 379.813 60.8166 379.813 59.7666C379.813 58.25 382.135 57.3166 383.876 57.3166C387.126 57.4333 387.474 59.65 387.474 60.7V63.3833C387.474 64.9 385.849 65.6 383.295 66.4166C379.465 67.7 375.286 68.05 371.34 69.45C367.393 70.85 364.955 73.8833 364.955 76.9166C364.955 79.6 366 81.5833 368.089 83.1C370.179 84.6166 372.965 85.3166 376.331 85.3166C380.858 85.3166 386.197 84.0333 388.287 80.1833C389.563 84.15 394.207 85.3166 397.573 85.3166C401.403 85.3166 404.653 84.7333 406.743 82.9833C408.6 81.4666 409.761 79.0166 409.761 75.2833H406.511C406.743 78.0833 405.466 78.6666 404.653 78.6666C403.957 78.9 403.028 78.2 403.028 75.4ZM442.958 75.75L442.842 78.6666C442.842 80.65 442.378 81.4666 438.78 81.4666V84.7333H462.691V81.4666H461.647C458.513 81.35 458.513 80.0666 458.397 77.6166L458.28 74.7V64.4333C458.28 56.0333 449.227 53.9333 444.351 53.8166C439.94 53.7 434.717 54.9833 432.396 59.3V54.5166H412.198V57.9H414.172C417.306 57.9 417.422 60.8166 417.538 62.9166V76.1C417.422 78.55 417.77 81.5833 414.172 81.5833H412.198V84.85H436.922V81.5833C434.137 81.5833 432.976 81.5833 432.86 78.7833L432.744 75.8666V65.1333C433.904 61.75 436.69 58.7166 439.476 58.7166C441.914 58.7166 442.726 60.1166 442.842 62.45L442.958 65.0166V75.75Z" fill="#E31E24"/>
<path fill-rule="evenodd" clip-rule="evenodd" d="M280.452 78.2L280.335 79.6L280.103 81L279.755 82.4L279.407 83.8L278.943 85.2L278.478 86.4833L277.898 87.7667L277.201 89.05L276.505 90.3333L275.692 91.5L274.88 92.6667L274.067 93.8333L273.139 94.8833L272.094 95.9333L271.049 96.8667L270.005 97.9167L268.844 98.85L267.567 99.6667L266.406 100.483L265.13 101.3L263.853 102L262.46 102.583L261.067 103.167L259.674 103.75L258.165 104.217L256.772 104.683L255.263 105.033L253.638 105.383L252.129 105.617L250.504 105.733L248.995 105.85L247.37 105.967L245.745 105.85L244.12 105.733L242.495 105.617L240.986 105.383L239.477 105.033L237.968 104.683L236.459 104.217L235.066 103.75L233.557 103.167L232.28 102.583L230.887 101.883L229.61 101.183L228.333 100.483L227.057 99.6667L225.896 98.7333L224.735 97.8L223.574 96.8667L222.53 95.8167L221.601 94.7667L220.672 93.7167L219.744 92.6667L218.931 91.5L218.119 90.2167L217.422 89.05L216.726 87.7667L216.145 86.4833L215.681 85.0833L215.217 83.8L214.869 82.4L214.52 81L214.288 79.6L214.172 78.0833L212.895 30.3667H212.779V25.9333L227.405 16.0167L233.905 20.45L247.138 11.4667L260.37 20.5667L266.987 16.0167L281.612 26.05L280.452 78.2Z" fill="black"/>
<path fill-rule="evenodd" clip-rule="evenodd" d="M279.407 78.0834L280.452 30.3667H213.94L215.217 77.9667C216.958 94.5334 231.584 104.45 247.37 104.8C263.157 104.45 277.666 94.7667 279.407 78.0834Z" fill="#F24942"/>
<path fill-rule="evenodd" clip-rule="evenodd" d="M247.371 0.266675L248.415 2.60001L250.969 2.83334C251.317 2.83334 251.317 2.83334 251.085 3.06668L249.112 4.81668L249.692 7.38334C249.808 7.73334 249.808 7.73334 249.46 7.50001L247.254 6.21668L245.049 7.50001C244.817 7.61668 244.817 7.73334 244.817 7.38334L245.397 4.81668L243.54 3.06668C243.308 2.83334 243.192 2.83334 243.54 2.83334L246.094 2.60001L247.138 0.266675C247.254 0.0333415 247.138 0.0333415 247.371 0.266675ZM281.729 11.5833L282.774 13.9167L285.327 14.15C285.676 14.15 285.676 14.15 285.443 14.3833L283.47 16.1333L284.05 18.7C284.167 19.05 284.167 19.05 283.818 18.8167L281.613 17.5333L279.407 18.8167C279.175 18.9333 279.175 19.05 279.175 18.7L279.756 16.1333L277.898 14.3833C277.666 14.15 277.55 14.15 277.898 14.15L280.452 13.9167L281.497 11.5833C281.613 11.2333 281.613 11.2333 281.729 11.5833ZM271.863 5.63334L272.907 7.96668L275.461 8.20001C275.809 8.20001 275.809 8.20001 275.577 8.43334L273.604 10.1833L274.184 12.75C274.3 13.1 274.3 13.1 273.952 12.8667L271.746 11.5833L269.541 12.8667C269.309 12.9833 269.309 13.1 269.309 12.75L269.889 10.1833L268.032 8.43334C267.8 8.20001 267.684 8.20001 268.032 8.20001L270.586 7.96668L271.63 5.63334C271.746 5.40001 271.63 5.28334 271.863 5.63334ZM260.023 1.78334L261.067 4.11667L263.621 4.35001C263.969 4.35001 263.969 4.35001 263.737 4.58334L261.764 6.33334L262.344 8.90001C262.46 9.25001 262.46 9.25001 262.112 9.01667L259.907 7.73334L257.701 9.01667C257.469 9.13334 257.469 9.25001 257.469 8.90001L258.05 6.33334L256.192 4.58334C255.96 4.35001 255.844 4.35001 256.192 4.35001L258.746 4.11667L259.791 1.78334C259.907 1.43334 259.907 1.43334 260.023 1.78334ZM212.896 11.4667L213.941 13.8L216.494 14.0333C216.843 14.0333 216.843 14.0333 216.61 14.2667L214.637 16.0167L215.218 18.5833C215.334 18.9333 215.334 18.9333 214.985 18.7L212.78 17.4167L210.574 18.7C210.342 18.8167 210.342 18.9333 210.342 18.5833L210.923 16.0167L209.065 14.2667C208.833 14.0333 208.717 14.0333 209.065 14.0333L211.619 13.8L212.664 11.4667C212.78 11.1167 212.78 11.1167 212.896 11.4667ZM222.762 5.63334L223.807 7.96668L226.361 8.20001C226.709 8.20001 226.709 8.20001 226.477 8.43334L224.504 10.1833L225.084 12.75C225.2 13.1 225.2 13.1 224.852 12.8667L222.646 11.5833L220.441 12.8667C220.209 12.9833 220.209 13.1 220.209 12.75L220.789 10.1833L218.932 8.43334C218.7 8.20001 218.584 8.20001 218.932 8.20001L221.486 7.96668L222.53 5.63334C222.646 5.40001 222.646 5.28334 222.762 5.63334ZM234.486 1.78334L235.531 4.11667L238.084 4.35001C238.433 4.35001 238.433 4.35001 238.201 4.58334L236.227 6.33334L236.808 8.90001C236.924 9.25001 236.924 9.25001 236.575 9.01667L234.37 7.73334L232.165 9.01667C231.932 9.13334 231.932 9.25001 231.932 8.90001L232.513 6.33334L230.656 4.58334C230.423 4.35001 230.307 4.35001 230.656 4.35001L233.209 4.11667L234.254 1.78334C234.37 1.43334 234.37 1.43334 234.486 1.78334Z" fill="#FFC735"/>
<path fill-rule="evenodd" clip-rule="evenodd" d="M266.987 17.3L280.568 26.6333L280.452 29.4333L213.94 29.3167L213.824 26.5167L227.405 17.3L233.905 21.85L247.138 12.75L260.371 21.85L266.987 17.3Z" fill="white"/>
<path fill-rule="evenodd" clip-rule="evenodd" d="M247.139 30.4834H280.685L279.408 78.0834C277.783 94.7667 263.157 104.567 247.139 104.917V30.4834Z" fill="white"/>
<path fill-rule="evenodd" clip-rule="evenodd" d="M245.165 93.0166C244.933 93.0166 244.701 93.0166 244.585 93.1333C244.585 93.25 244.701 93.4833 244.817 93.7166C245.049 94.0666 245.281 94.4166 245.397 94.8833C245.513 95.35 245.629 95.7 245.629 96.1666C245.629 97.1 245.281 98.15 244.585 98.85C244.004 99.4333 243.076 99.8999 242.031 99.8999C240.986 99.8999 240.058 99.4333 239.477 98.85C238.781 98.15 238.433 97.2166 238.316 96.2833C238.316 95.2333 238.781 94.4166 239.129 93.8333C239.245 93.6 239.593 93.4833 239.477 93.4833C239.477 93.4833 239.245 93.6 239.013 93.7166C238.549 93.95 238.084 94.1833 237.504 94.1833C237.388 94.1833 237.272 94.1833 237.04 94.1833C236.227 94.1833 235.531 93.8333 234.95 93.3666C234.486 92.9 234.138 92.2 234.138 91.5C234.138 91.3833 234.138 91.15 234.138 91.0333C234.138 90.8 234.138 90.6833 234.138 90.45C234.254 89.75 234.486 89.1666 234.95 88.7C235.415 88.2333 236.111 87.8833 236.924 87.8833C237.156 87.8833 237.272 87.8833 237.504 87.8833C238.084 88 238.549 88.2333 239.013 88.35C239.361 88.4666 239.477 88.7 239.477 88.5833C239.593 88.4666 239.245 88.4666 239.129 88.2333C238.781 87.5333 238.316 86.8333 238.316 85.7833C238.316 84.7333 238.781 83.8 239.477 83.2166C240.174 82.5166 240.986 82.1666 242.031 82.1666C243.192 82.1666 244.004 82.6333 244.585 83.2166C245.281 83.9166 245.629 84.9666 245.629 85.9C245.629 86.3666 245.513 86.8333 245.397 87.1833C245.281 87.5333 245.049 88 244.817 88.35C244.701 88.5833 244.585 88.8166 244.585 88.9333C244.701 88.9333 244.817 89.05 245.165 89.05V90.6833C244.585 90.6833 244.12 90.5666 243.772 90.3333C243.54 90.2166 243.308 89.9833 243.192 89.75C243.076 89.5166 242.959 89.2833 242.959 89.05C242.959 88.5833 243.076 88.1166 243.424 87.65C243.656 87.3 243.772 87.0666 243.888 86.7166C244.004 86.4833 244.004 86.25 244.004 86.0166C244.004 85.4333 243.772 84.85 243.308 84.3833C242.96 84.0333 242.495 83.8 241.799 83.8C241.218 83.8 240.638 84.0333 240.29 84.3833C239.942 84.7333 239.593 85.3166 239.593 86.0166C239.593 86.6 239.942 87.1833 240.174 87.65C240.638 88.4666 241.102 89.1666 240.29 89.9833C239.593 90.8 238.897 90.45 237.968 90.1C237.62 89.9833 237.272 89.75 236.924 89.75C236.807 89.75 236.691 89.75 236.575 89.75C236.227 89.75 235.879 89.8666 235.763 90.1C235.531 90.3333 235.415 90.6833 235.298 91.0333C235.298 91.15 235.298 91.2666 235.298 91.3833C235.298 91.5 235.298 91.5 235.298 91.6166C235.298 91.9666 235.531 92.3166 235.763 92.55C235.995 92.7833 236.227 92.9 236.691 92.9C236.807 92.9 236.807 92.9 236.924 92.9C237.272 92.9 237.62 92.6666 237.968 92.55C238.781 92.2 239.477 91.85 240.29 92.6666C240.986 93.4833 240.638 94.0666 240.174 95C239.942 95.4666 239.593 96.05 239.593 96.6333C239.593 97.2166 239.825 97.8 240.29 98.2666C240.638 98.6166 241.218 98.85 241.799 98.85C242.495 98.85 242.96 98.6166 243.308 98.2666C243.772 97.8 244.004 97.2166 244.004 96.6333C244.004 96.4 243.888 96.1666 243.888 95.9333C243.772 95.7 243.656 95.35 243.424 95C243.076 94.4166 242.959 93.95 242.959 93.6C242.959 93.3666 243.076 93.0166 243.192 92.9C243.308 92.6666 243.54 92.4333 243.772 92.3166C244.12 92.0833 244.585 91.9666 245.165 91.9666V93.0166ZM247.138 93.7166V88C246.906 88 246.674 88.2333 246.674 88.4666V88.7C246.674 88.2333 245.977 88.2333 245.977 88.7V92.9C245.977 93.3666 246.674 93.3666 246.674 92.9V93.1333C246.674 93.6 246.906 93.7166 247.138 93.7166Z" fill="#FFC735"/>
<path fill-rule="evenodd" clip-rule="evenodd" d="M245.513 88.4667C245.629 88.1167 245.978 88 246.326 88C246.674 87.4167 247.603 87.4167 247.951 88C248.299 88 248.531 88.1167 248.764 88.35C252.594 88.35 256.425 88.35 260.255 88.35H260.719V90.8H248.88V90.9167H260.719V93.3667H258.746V93.4834H259.907V95.5834H258.746V95.9334H259.907V99.2H257.817V98.0334H257.585V99.2H255.496V95.9334H256.657V95.5834H255.496V94.4167H255.264V95.5834H254.103V95.9334H255.264V99.2H253.174V98.0334H252.942V99.2H250.853V95.9334H252.014V95.5834H250.853V93.4834H252.014V93.3667H248.764C248.647 93.6 248.299 93.7167 247.951 93.7167C247.603 94.3 246.674 94.3 246.326 93.7167C245.978 93.7167 245.629 93.6 245.513 93.25V93.3667H245.165C246.21 95.1167 246.558 97.3334 245.049 98.85C244.353 99.55 243.308 100.017 242.379 100.133C239.826 100.367 237.968 98.6167 237.852 96.05C237.852 95.35 237.968 94.7667 238.201 94.1834C236.924 94.65 235.647 94.5334 234.602 93.4834C233.209 92.0834 233.209 89.6334 234.602 88.2334C235.647 87.0667 236.924 87.0667 238.201 87.5334C237.968 86.95 237.736 86.3667 237.852 85.6667C237.968 83.3334 239.71 81.5834 242.031 81.5834C244.353 81.5834 246.094 83.45 246.21 85.7834C246.21 86.7167 245.746 87.65 245.281 88.4667H245.63H245.513ZM245.513 90.8C244.121 90.8 242.612 90.45 242.612 88.7C242.612 88.1167 242.844 87.5334 243.192 87.0667C243.424 86.7167 243.772 86.1334 243.772 85.6667C243.772 84.7334 243.076 83.9167 242.031 83.9167C240.986 83.9167 240.29 84.7334 240.29 85.6667C240.29 86.1334 240.638 86.6 240.754 87.0667C241.335 88 241.799 88.9334 240.87 89.8667C239.942 90.8 239.129 90.45 238.085 89.9834C237.62 89.75 236.808 89.4 236.343 89.8667C235.879 90.3334 235.879 91.3834 236.343 91.7334C236.808 92.2 237.62 91.85 238.085 91.6167C239.129 91.15 239.942 90.8 240.87 91.7334C241.799 92.6667 241.335 93.6 240.754 94.5334C240.522 94.8834 240.174 95.4667 240.29 95.9334C240.406 98.85 245.281 98.15 243.192 94.5334C242.495 93.3667 242.379 91.9667 243.656 91.2667C244.237 90.9167 244.933 90.9167 245.63 90.9167V90.8H245.513Z" fill="black"/>
<path d="M245.397 93.0167C244.701 93.0167 244.469 93.1334 244.817 93.7167C248.648 100.133 238.549 102.467 238.201 96.1667C238.201 95.1167 238.665 94.3 239.013 93.7167C239.129 93.4834 239.478 93.3667 239.362 93.3667C239.362 93.3667 239.129 93.4834 238.897 93.6C237.62 94.1834 236.111 94.5334 234.951 93.3667C233.79 92.2 233.79 89.8667 234.951 88.7C236.111 87.4167 237.62 87.7667 238.897 88.35C239.245 88.4667 239.362 88.7 239.362 88.5834C239.478 88.4667 239.129 88.4667 239.013 88.2334C238.665 87.5334 238.201 86.8334 238.201 85.7834C238.317 83.6834 239.826 82.05 241.915 82.05C244.005 82.05 245.63 83.6834 245.63 85.7834C245.63 86.7167 245.165 87.5334 244.817 88.2334C244.469 88.8167 244.817 88.9334 245.397 88.9334V90.5667C244.353 90.5667 242.96 90.1 242.96 88.9334C242.96 88.4667 243.076 88 243.424 87.5334C243.656 87.0667 244.005 86.4834 244.005 85.9C244.005 84.6167 243.076 83.6834 241.915 83.6834C240.638 83.6834 239.826 84.6167 239.71 85.9C239.71 86.4834 240.058 87.0667 240.29 87.5334C240.754 88.35 241.219 89.05 240.406 89.8667C239.71 90.6834 239.013 90.3334 238.085 89.9834C237.388 89.6334 236.46 89.2834 235.879 89.9834C235.299 90.5667 235.299 91.85 235.879 92.55C236.46 93.1334 237.388 92.7834 238.085 92.55C238.897 92.2 239.594 91.85 240.406 92.6667C241.103 93.4834 240.754 94.0667 240.29 95C240.058 95.4667 239.71 96.05 239.71 96.6334C239.826 100.25 245.862 99.2 243.424 95C242.844 94.0667 242.612 92.9 243.656 92.3167C244.005 92.0834 244.817 91.9667 245.397 91.9667V93.0167ZM259.559 98.7334H258.398V97.5667H257.237V98.7334H256.076V96.4H257.237V95.2334H256.076V94.0667H254.916V95.2334H253.755V96.4H254.916V98.7334H253.755V97.5667H252.594V98.7334H251.433V96.4H252.594V95.2334H251.433V94.0667H252.594V93.1334H248.996V91.5H260.487V93.1334H258.514V94.0667H259.675V95.2334H258.514V96.4H259.675V98.7334H259.559ZM260.255 88.8167V90.45H248.764V88.8167C254.451 88.8167 256.193 88.8167 260.255 88.8167ZM246.674 88.8167C246.674 88.35 245.978 88.35 245.978 88.8167V93.0167C245.978 93.4834 246.674 93.4834 246.674 93.0167V93.25C246.674 93.95 247.719 93.95 247.719 93.25C247.719 93.1334 247.719 93.1334 247.719 93.0167C247.719 93.4834 248.415 93.4834 248.415 93.0167V88.8167C248.415 88.35 247.719 88.35 247.719 88.8167V88.5834C247.719 87.8834 246.674 87.8834 246.674 88.5834C246.674 88.5834 246.674 88.7 246.674 88.8167Z" fill="#FFC735"/>
<path fill-rule="evenodd" clip-rule="evenodd" d="M235.995 57.2001H236.808V55.5667C236.808 55.4501 236.924 55.3334 237.04 55.3334H239.593C239.709 55.3334 239.826 55.4501 239.826 55.5667V57.3167H242.263V55.6834C242.263 55.5667 242.379 55.4501 242.495 55.4501H245.049C245.165 55.4501 245.281 55.5667 245.281 55.6834V57.4334H247.138C247.254 57.4334 247.37 57.5501 247.37 57.6667C247.37 60.5834 247.37 63.6167 247.37 66.5334C247.37 66.7667 247.37 66.8834 247.138 66.8834C245.629 66.8834 244.353 68.1667 244.353 69.6834C244.353 72.3667 244.353 75.0501 244.353 77.7334C244.353 77.8501 244.236 77.9667 244.12 77.9667H241.102C240.986 77.9667 240.87 77.8501 240.87 77.7334V77.2667H238.317L238.433 77.7334C238.433 77.8501 238.317 77.9667 238.2 78.0834C235.299 78.2001 232.513 78.5501 229.611 78.5501C226.709 78.5501 223.923 78.2001 221.021 78.0834C220.905 78.0834 220.789 77.9667 220.789 77.8501L221.602 72.0167C221.602 71.9001 221.718 71.7834 221.834 71.7834H222.182L223.691 50.7834L222.298 49.7334C222.182 49.7334 222.182 49.6167 222.182 49.5001V46.0001C222.182 45.8834 222.298 45.7667 222.414 45.7667H224.155L229.263 39.1167V38.1834V35.5001C229.263 35.3834 229.379 35.2667 229.495 35.2667H231.816H234.138C234.254 35.2667 234.37 35.3834 234.37 35.5001C234.37 35.6167 234.37 35.6167 234.254 35.7334L233.093 36.9001L234.254 38.0667C234.37 38.1834 234.37 38.3001 234.254 38.4167C234.254 38.4167 234.138 38.5334 234.022 38.5334H229.727V39.2334L234.95 45.8834H236.575C236.691 45.8834 236.808 46.0001 236.808 46.1167C236.808 47.2834 236.808 48.4501 236.808 49.6167C236.808 49.7334 236.808 49.7334 236.691 49.8501L235.299 50.9001L235.995 57.2001Z" fill="white"/>
<path fill-rule="evenodd" clip-rule="evenodd" d="M230.772 58.95L231.12 54.1666C231.12 51.8333 227.986 51.8333 227.986 54.1666L228.335 58.95H230.772Z" fill="#F24942"/>
<path fill-rule="evenodd" clip-rule="evenodd" d="M264.782 34.9167H267.104H269.425C269.541 34.9167 269.657 35.0334 269.657 35.15C269.657 35.2667 269.657 35.2667 269.541 35.3834L268.38 36.55L269.541 37.7167C269.657 37.8334 269.657 37.95 269.541 38.0667L269.425 38.1834H265.13V38.8834L270.238 45.5334H271.979C272.095 45.5334 272.211 45.6501 272.211 45.7667V49.2667C272.211 49.3834 272.211 49.3834 272.095 49.5L270.702 50.55L272.211 71.5501H272.559C272.675 71.5501 272.791 71.6667 272.791 71.7834L273.604 77.6167C273.604 77.7334 273.488 77.8501 273.372 77.8501C270.47 77.9667 267.684 78.3167 264.782 78.3167C261.88 78.3167 259.094 77.9667 256.192 77.8501C256.076 77.8501 255.96 77.7334 255.96 77.5L256.076 77.0334H253.523V77.5C253.523 77.6167 253.407 77.7334 253.291 77.7334H250.273C250.157 77.7334 250.04 77.6167 250.04 77.5C250.04 74.8167 250.04 72.1334 250.04 69.45C250.04 67.8167 248.764 66.65 247.255 66.65C247.022 66.65 247.022 66.5334 247.022 66.3001C247.022 63.3834 247.022 60.3501 247.022 57.4334C247.022 57.3167 247.139 57.2 247.255 57.2H249.112V55.45C249.112 55.3334 249.228 55.2167 249.344 55.2167H251.898C252.014 55.2167 252.13 55.3334 252.13 55.45V57.0834H254.567V55.3334C254.567 55.2167 254.683 55.1001 254.8 55.1001H257.353C257.469 55.1001 257.585 55.2167 257.585 55.3334V56.9667H258.398L258.862 50.2L257.469 49.15C257.353 49.15 257.353 49.0334 257.353 48.9167C257.353 47.75 257.353 46.5834 257.353 45.4167C257.353 45.3 257.469 45.1834 257.585 45.1834H259.21L264.434 38.5334V37.4834V34.8C264.434 35.0334 264.55 34.9167 264.782 34.9167Z" fill="#F24942"/>
<path fill-rule="evenodd" clip-rule="evenodd" d="M263.272 54.1667L263.621 58.7167H265.826L266.174 54.1667C266.174 51.95 263.272 52.0667 263.272 54.1667Z" fill="white"/>
<path fill-rule="evenodd" clip-rule="evenodd" d="M237.504 74.4667C235.879 74.5834 234.138 74.8167 232.513 74.9334C232.513 74.3501 232.513 72.8334 232.513 72.2501C234.022 72.1334 235.647 72.0167 237.156 71.9001L237.504 74.4667ZM243.888 69.8001H241.567V71.3167C242.379 71.3167 243.076 71.3167 243.888 71.3167V69.8001ZM238.317 76.5667H240.87V74.7001C240.87 74.5834 240.986 74.4667 241.102 74.4667H241.218V72.6001C241.218 72.4834 241.335 72.3667 241.451 72.3667V71.7834C241.218 71.7834 241.102 71.7834 241.102 71.5501V69.4501C241.102 69.3334 241.102 69.3334 241.218 69.2167C241.218 68.1667 241.567 67.2334 242.031 66.4167L241.451 66.0667C241.335 65.9501 241.335 65.8334 241.335 65.7167C241.799 64.9001 242.611 64.0834 243.424 63.5001C243.54 63.3834 243.656 63.5001 243.772 63.6167L244.236 64.2001C244.701 63.9667 245.165 63.7334 245.745 63.5001C245.513 62.8001 245.397 61.9834 245.165 61.2834C245.165 61.1667 245.165 61.0501 245.397 60.9334C245.978 60.8167 246.674 60.7001 247.254 60.7001V60.1167H236.459L237.272 71.3167H237.62C237.62 71.3167 237.852 71.4334 237.852 71.5501L238.317 76.5667ZM236.111 59.7667H246.906V59.3001H236.111V59.7667ZM236.111 58.7167H246.906V57.7834H245.049C244.933 57.7834 244.817 57.6667 244.817 57.5501V55.8001H242.727V57.5501C242.727 57.6667 242.611 57.7834 242.495 57.7834H239.593C239.477 57.7834 239.361 57.6667 239.361 57.5501V55.8001H237.272V57.5501C237.272 57.6667 237.156 57.7834 237.04 57.7834H235.995L236.111 58.7167ZM235.995 57.2001H236.808V55.5667C236.808 55.4501 236.924 55.3334 237.04 55.3334H239.593C239.709 55.3334 239.826 55.4501 239.826 55.5667V57.3167H242.263V55.6834C242.263 55.5667 242.379 55.4501 242.495 55.4501H245.049C245.165 55.4501 245.281 55.5667 245.281 55.6834V57.4334H247.138C247.254 57.4334 247.37 57.5501 247.37 57.6667C247.37 60.5834 247.37 63.6167 247.37 66.5334C247.37 66.7667 247.37 66.8834 247.138 66.8834C245.629 66.8834 244.353 68.1667 244.353 69.6834C244.353 72.3667 244.353 75.0501 244.353 77.7334C244.353 77.8501 244.236 77.9667 244.12 77.9667H241.102C240.986 77.9667 240.87 77.8501 240.87 77.7334V77.2667H238.317L238.433 77.7334C238.433 77.8501 238.317 77.9667 238.2 78.0834C235.299 78.2001 232.513 78.5501 229.611 78.5501C226.709 78.5501 223.923 78.2001 221.021 78.0834C220.905 78.0834 220.789 77.9667 220.789 77.8501L221.602 72.0167C221.602 71.9001 221.718 71.7834 221.834 71.7834H222.182L223.691 50.7834L222.298 49.7334C222.182 49.7334 222.182 49.6167 222.182 49.5001V46.0001C222.182 45.8834 222.298 45.7667 222.414 45.7667H224.155L229.263 39.1167V38.1834V35.5001C229.263 35.3834 229.379 35.2667 229.495 35.2667H231.816H234.138C234.254 35.2667 234.37 35.3834 234.37 35.5001C234.37 35.6167 234.37 35.6167 234.254 35.7334L233.093 36.9001L234.254 38.0667C234.37 38.1834 234.37 38.3001 234.254 38.4167C234.254 38.4167 234.138 38.5334 234.022 38.5334H229.727V39.2334L234.95 45.8834H236.575C236.691 45.8834 236.808 46.0001 236.808 46.1167C236.808 47.2834 236.808 48.4501 236.808 49.6167C236.808 49.7334 236.808 49.7334 236.691 49.8501L235.299 50.9001L235.995 57.2001ZM241.335 77.2667H243.772C243.772 76.6834 243.772 76.5667 243.772 74.9334C242.96 74.9334 242.147 74.9334 241.335 74.9334C241.335 76.6834 241.335 76.8001 241.335 77.2667ZM246.906 61.4001C246.442 61.4001 245.861 61.5167 245.397 61.6334C245.978 63.7334 245.978 64.0834 246.558 66.3001C246.674 66.3001 246.79 66.3001 246.906 66.3001V61.4001ZM245.513 64.0834C245.049 64.2001 244.585 64.4334 244.236 64.6667L245.513 66.5334C245.745 66.4167 245.861 66.3001 246.094 66.3001C245.861 65.6001 245.745 64.9001 245.513 64.0834ZM244.469 67.5834C244.701 67.3501 244.817 67.1167 245.049 66.8834C243.772 64.9001 243.772 65.0167 243.192 64.2001C242.611 64.6667 242.031 65.2501 241.683 65.8334C242.611 66.4167 242.844 66.5334 244.469 67.5834ZM242.263 66.7667C241.915 67.4667 241.567 68.2834 241.567 69.2167H243.888C243.888 68.7501 244.004 68.2834 244.236 67.9334L242.263 66.7667ZM241.683 72.9501V74.4667H243.772V72.9501H241.683ZM241.915 72.4834H243.888V71.9001H241.915V72.4834ZM229.843 35.3834V37.6001H233.557L232.629 36.6667C232.513 36.5501 232.513 36.4334 232.629 36.3167L233.557 35.3834H231.816H229.843ZM234.602 45.7667L229.611 39.3501L224.736 45.8834V47.2834H226.129C226.129 46.8167 226.129 46.3501 226.129 45.7667C226.129 45.6501 226.245 45.5334 226.361 45.5334H228.798C228.914 45.5334 229.03 45.6501 229.03 45.7667C229.03 46.2334 229.03 46.7001 229.03 47.2834H230.423C230.423 46.8167 230.423 46.3501 230.423 45.8834C230.423 45.7667 230.539 45.6501 230.656 45.6501H233.093C233.209 45.6501 233.325 45.7667 233.325 45.8834C233.325 46.3501 233.325 46.8167 233.325 47.4001H234.718C234.602 46.8167 234.602 46.2334 234.602 45.7667ZM232.048 75.0501C230.423 75.1667 228.914 75.1667 227.289 75.0501C227.289 74.4667 227.289 72.9501 227.289 72.3667C228.914 72.4834 230.423 72.4834 232.048 72.3667C232.048 72.9501 232.048 74.4667 232.048 75.0501ZM226.709 75.0501C225.084 74.9334 223.343 74.7001 221.718 74.5834L222.066 72.0167C223.575 72.1334 225.2 72.2501 226.709 72.3667C226.709 72.8334 226.709 74.3501 226.709 75.0501ZM236.459 46.0001H235.066C235.066 46.4667 235.066 46.9334 235.066 47.5167C235.066 47.6334 234.95 47.7501 234.834 47.7501H232.977C232.861 47.7501 232.745 47.6334 232.745 47.5167C232.745 47.0501 232.745 46.5834 232.745 46.0001H230.772C230.772 46.4667 230.772 46.9334 230.772 47.4001C230.772 47.5167 230.656 47.6334 230.539 47.6334H228.682C228.566 47.6334 228.45 47.5167 228.45 47.4001C228.45 46.9334 228.45 46.4667 228.45 45.8834H226.477C226.477 46.3501 226.477 46.8167 226.477 47.2834C226.477 47.4001 226.361 47.5167 226.245 47.5167H224.387C224.271 47.5167 224.155 47.4001 224.155 47.2834C224.155 46.8167 224.155 46.3501 224.155 45.7667H222.762C222.762 46.7001 222.762 47.7501 222.762 48.6834H236.459V46.0001ZM224.271 50.6667L222.762 71.4334C225.084 71.6667 227.289 71.9001 229.611 71.9001C231.932 71.9001 234.138 71.6667 236.459 71.4334L234.95 50.6667H224.271ZM224.155 50.0834H235.183L235.995 49.5001H223.343L224.155 50.0834ZM221.718 75.0501C224.387 75.2834 227.057 75.6334 229.727 75.6334C232.397 75.6334 235.066 75.2834 237.736 75.0501L238.084 77.3834C235.299 77.5001 232.629 77.8501 229.843 77.8501C227.057 77.8501 224.387 77.5001 221.602 77.3834L221.718 75.0501Z" fill="black"/>
<path fill-rule="evenodd" clip-rule="evenodd" d="M256.773 74.4667C258.398 74.5834 260.139 74.8167 261.764 74.9334C261.764 74.3501 261.764 72.8334 261.764 72.25C260.255 72.1334 258.63 72.0167 257.121 71.9L256.773 74.4667ZM264.782 34.9167H267.104H269.425C269.541 34.9167 269.657 35.0334 269.657 35.15C269.657 35.2667 269.657 35.2667 269.541 35.3834L268.38 36.55L269.541 37.7167C269.657 37.8334 269.657 37.95 269.541 38.0667L269.425 38.1834H265.13V38.8834L270.238 45.5334H271.979C272.095 45.5334 272.211 45.6501 272.211 45.7667V49.2667C272.211 49.3834 272.211 49.3834 272.095 49.5L270.702 50.55L272.211 71.5501H272.559C272.675 71.5501 272.791 71.6667 272.791 71.7834L273.604 77.6167C273.604 77.7334 273.488 77.8501 273.372 77.8501C270.47 77.9667 267.684 78.3167 264.782 78.3167C261.88 78.3167 259.094 77.9667 256.192 77.8501C256.076 77.8501 255.96 77.7334 255.96 77.5L256.076 77.0334H253.523V77.5C253.523 77.6167 253.407 77.7334 253.291 77.7334H250.273C250.157 77.7334 250.04 77.6167 250.04 77.5C250.04 74.8167 250.04 72.1334 250.04 69.45C250.04 67.8167 248.764 66.65 247.255 66.65C247.022 66.65 247.022 66.5334 247.022 66.3001C247.022 63.3834 247.022 60.3501 247.022 57.4334C247.022 57.3167 247.139 57.2 247.255 57.2H249.112V55.45C249.112 55.3334 249.228 55.2167 249.344 55.2167H251.898C252.014 55.2167 252.13 55.3334 252.13 55.45V57.0834H254.567V55.3334C254.567 55.2167 254.683 55.1001 254.8 55.1001H257.353C257.469 55.1001 257.585 55.2167 257.585 55.3334V56.9667H258.398L258.862 50.2L257.469 49.15C257.353 49.15 257.353 49.0334 257.353 48.9167C257.353 47.75 257.353 46.5834 257.353 45.4167C257.353 45.3 257.469 45.1834 257.585 45.1834H259.21L264.434 38.5334V37.4834V34.8C264.434 35.0334 264.55 34.9167 264.782 34.9167ZM265.014 35.3834V37.6001H268.729L267.8 36.6667C267.684 36.55 267.684 36.4334 267.8 36.3167L268.729 35.3834H266.988H265.014ZM250.505 69.8001H252.826V71.3167C252.014 71.3167 251.317 71.3167 250.505 71.3167V69.8001ZM256.076 76.5667H253.523V74.7C253.523 74.5834 253.407 74.4667 253.291 74.4667H253.175V72.6001C253.175 72.4834 253.058 72.3667 252.942 72.3667V71.7834C253.174 71.7834 253.291 71.7834 253.291 71.5501V69.45C253.291 69.3334 253.291 69.3334 253.175 69.2167C253.175 68.1667 252.826 67.2334 252.362 66.4167L252.942 66.0667C253.058 65.95 253.058 65.8334 253.058 65.7167C252.594 64.9001 251.782 64.0834 250.969 63.5C250.853 63.3834 250.737 63.5 250.621 63.6167L250.157 64.2C249.692 63.9667 249.228 63.7334 248.648 63.5C248.88 62.8 248.996 61.9834 249.228 61.2834C249.228 61.1667 249.228 61.0501 248.996 60.9334C248.415 60.8167 247.719 60.7 247.139 60.7V60.1167H257.934L257.121 71.3167H256.773C256.773 71.3167 256.541 71.4334 256.541 71.5501L256.076 76.5667ZM258.166 59.7667H247.371V59.3001H258.166V59.7667ZM258.282 58.7167H247.487V57.7834H249.344C249.46 57.7834 249.576 57.6667 249.576 57.5501V55.8001H251.665V57.5501C251.665 57.6667 251.782 57.7834 251.898 57.7834H254.8C254.916 57.7834 255.032 57.6667 255.032 57.5501V55.8001H257.121V57.5501C257.121 57.6667 257.237 57.7834 257.353 57.7834H258.398L258.282 58.7167ZM252.942 77.2667H250.505C250.505 76.6834 250.505 76.5667 250.505 74.9334C251.317 74.9334 252.13 74.9334 252.942 74.9334C252.942 76.6834 252.942 76.8001 252.942 77.2667ZM247.371 61.4C247.835 61.4 248.415 61.5167 248.88 61.6334C248.299 63.7334 248.299 64.0834 247.719 66.3001C247.603 66.3001 247.487 66.3001 247.371 66.3001V61.4ZM248.764 64.0834C249.228 64.2 249.692 64.4334 250.04 64.6667L248.764 66.5334C248.531 66.4167 248.415 66.3001 248.183 66.3001C248.415 65.6 248.531 64.9 248.764 64.0834ZM249.808 67.5834C249.576 67.35 249.46 67.1167 249.228 66.8834C250.505 64.9001 250.505 65.0167 251.085 64.2C251.665 64.6667 252.246 65.25 252.594 65.8334C251.666 66.4167 251.549 66.5334 249.808 67.5834ZM252.014 66.7667C252.362 67.4667 252.71 68.2834 252.71 69.2167H250.389C250.389 68.75 250.273 68.2834 250.04 67.9334L252.014 66.7667ZM252.594 72.95V74.4667H250.505V72.95H252.594ZM252.362 72.4834H250.389V71.9H252.362V72.4834ZM259.675 45.7667L264.782 39.3501L269.657 45.8834V47.2834H268.264C268.264 46.8167 268.264 46.3501 268.264 45.7667C268.264 45.6501 268.148 45.5334 268.032 45.5334H265.595C265.479 45.5334 265.362 45.6501 265.362 45.7667C265.362 46.2334 265.362 46.7 265.362 47.2834H263.97C263.97 46.8167 263.97 46.35 263.97 45.8834C263.97 45.7667 263.853 45.65 263.737 45.65H261.3C261.184 45.65 261.068 45.7667 261.068 45.8834C261.068 46.35 261.068 46.8167 261.068 47.4H259.675C259.675 46.8167 259.675 46.2334 259.675 45.7667ZM262.345 75.0501C263.97 75.1667 265.479 75.1667 267.104 75.0501C267.104 74.4667 267.104 72.95 267.104 72.3667C265.479 72.4834 263.97 72.4834 262.345 72.3667C262.345 72.95 262.345 74.4667 262.345 75.0501ZM267.568 75.0501C269.193 74.9334 270.934 74.7001 272.559 74.5834L272.211 72.0167C270.702 72.1334 269.077 72.25 267.568 72.3667C267.568 72.8334 267.568 74.3501 267.568 75.0501ZM257.818 46H259.21C259.21 46.4667 259.21 46.9334 259.21 47.5167C259.21 47.6334 259.327 47.75 259.443 47.75H261.3C261.416 47.75 261.532 47.6334 261.532 47.5167C261.532 47.0501 261.532 46.5834 261.532 46H263.505C263.505 46.4667 263.505 46.9334 263.505 47.4C263.505 47.5167 263.621 47.6334 263.737 47.6334H265.595C265.711 47.6334 265.827 47.5167 265.827 47.4C265.827 46.9334 265.827 46.4667 265.827 45.8834H267.8C267.8 46.35 267.8 46.8167 267.8 47.2834C267.8 47.4 267.916 47.5167 268.032 47.5167H269.889C270.006 47.5167 270.122 47.4 270.122 47.2834C270.122 46.8167 270.122 46.3501 270.122 45.7667H271.514C271.514 46.7001 271.514 47.7501 271.514 48.6834H257.818V46ZM270.006 50.6667L271.514 71.5501C269.193 71.7834 266.988 72.0167 264.666 72.0167C262.345 72.0167 260.139 71.7834 257.818 71.5501L259.327 50.6667H270.006ZM270.238 50.0834H259.21L258.398 49.5H271.05L270.238 50.0834ZM272.675 75.0501C270.006 75.2834 267.336 75.6334 264.666 75.6334C261.996 75.6334 259.327 75.2834 256.657 75.0501L256.309 77.3834C259.094 77.5001 261.764 77.8501 264.55 77.8501C267.336 77.8501 270.006 77.5001 272.791 77.3834L272.675 75.0501Z" fill="black"/>
<path d="M228.218 54.1666L228.566 58.7166H230.771L231.12 54.1666C231.12 51.95 228.218 52.0666 228.218 54.1666ZM231.584 54.1666L231.236 58.95C231.236 59.0666 231.12 59.1833 231.004 59.1833C230.191 59.1833 229.03 59.1833 228.334 59.1833C228.218 59.1833 228.102 59.0666 228.102 58.95L227.753 54.1666C227.637 51.25 231.584 51.25 231.584 54.1666Z" fill="black"/>
<path d="M263.272 54.1666L263.621 58.7166H265.826L266.174 54.1666C266.174 51.95 263.272 52.0666 263.272 54.1666ZM266.639 54.1666L266.29 58.95C266.29 59.0666 266.174 59.1833 266.058 59.1833C265.246 59.1833 264.085 59.1833 263.389 59.1833C263.272 59.1833 263.156 59.0666 263.156 58.95L262.808 54.1666C262.692 51.25 266.639 51.25 266.639 54.1666Z" fill="black"/>
</svg>
