<svg width="153" height="47" viewBox="0 0 153 47" fill="none" xmlns="http://www.w3.org/2000/svg">
<path d="M130.933 28.6693L130.91 29.5834C130.91 30.1897 130.774 30.4699 129.71 30.4699L129.711 31.502L136.704 31.4944V30.4699L136.393 30.4575C135.49 30.4213 135.46 30.0357 135.441 29.2585L135.417 28.3444V25.1545C135.417 22.5352 132.761 21.8828 131.351 21.8625C130.066 21.844 128.544 22.2426 127.866 23.5513V22.061H121.941L121.933 23.0965H122.498C123.404 23.0965 123.455 24.0054 123.474 24.6603V28.7782C123.455 29.5405 123.545 30.4699 122.498 30.4699H121.928L121.925 31.4966H129.165L129.168 30.4699C128.348 30.4699 128 30.4699 127.982 29.5834L127.959 28.6693V25.3128C128.312 24.249 129.119 23.3226 129.927 23.311C130.654 23.3008 130.889 23.7314 130.91 24.4614L130.933 25.276V28.6693ZM119.267 28.5411V25.2237C119.267 24.0505 118.602 22.9145 117.717 22.5003C116.54 21.9496 115.136 21.9086 114.223 21.8868C112.603 21.8476 111.445 22.1011 110.359 22.6006C109.282 23.0961 108.712 23.7891 108.741 24.5406C108.779 25.5288 109.962 25.9342 110.722 25.9342C111.51 25.9342 113.13 25.6696 113.126 24.6266C113.123 23.9626 112.497 24.0276 112.497 23.71C112.497 23.2319 113.176 22.9371 113.695 22.953C114.655 22.9828 114.735 23.6908 114.736 24.0095L114.74 24.8535C114.742 25.312 114.252 25.5538 113.523 25.7996C112.388 26.1815 111.176 26.3154 110.041 26.7435C108.898 27.174 108.184 28.1397 108.184 29.0505C108.184 29.8738 108.493 30.5178 109.113 30.9821C109.732 31.4465 110.538 31.6788 111.53 31.6788C112.861 31.6788 114.424 31.2834 115.038 30.0673C115.407 31.3183 116.757 31.6788 117.757 31.6788C118.87 31.6788 119.815 31.498 120.453 30.9524C121.009 30.4768 121.333 29.7246 121.333 28.5734H120.369C120.42 29.4367 120.077 29.623 119.824 29.6266C119.548 29.6306 119.267 29.4298 119.267 28.5411ZM113.709 29.8779C113.168 29.8779 112.68 29.4447 112.67 28.6083C112.66 27.929 113.068 27.3817 113.54 27.0792C113.949 26.8174 114.434 26.624 114.818 26.3731V26.311L114.806 28.7938C114.66 29.3162 114.308 29.8779 113.709 29.8779ZM96.9295 23.0804L96.9458 18.0311L97.9242 18.0307C99.1857 18.0773 100.643 18.8051 100.603 20.462C100.571 21.8127 99.8769 23.0706 98.7644 23.0742L96.9295 23.0804ZM88.4052 18.0307L89.752 18.0322C91.0101 18.0336 91.2135 19.5351 91.2135 20.3912V28.0998C91.2135 29.5878 90.7687 30.4736 89.2783 30.4736H88.4052V31.4944H99.7876C100.531 31.4944 101.406 31.4607 102.413 31.421C103.42 31.3811 104.272 31.2257 104.969 30.9553C106.454 30.3781 107.391 29.2211 107.376 27.4873C107.355 25.0053 105.581 24.0273 103.517 23.7619C102.951 23.6893 102.103 23.653 100.973 23.653V23.494C101.918 23.494 103.185 23.4591 104.253 23.1041C105.418 22.7163 106.348 21.7278 106.363 20.2031C106.385 18.1004 104.21 17.3003 102.552 17.113C101.731 17.0208 100.593 16.974 99.1368 16.974L88.4052 16.994V18.0307ZM98.6027 30.4699L97.2083 30.4736H96.9295V24.1249L98.9816 24.1259C100.221 24.1268 101.371 25.3337 101.371 27.1641C101.371 29.1946 100.46 30.4652 98.6027 30.4699ZM47.2125 23.0804L47.2287 18.0311L48.2071 18.0307C49.4687 18.0773 50.9255 18.8051 50.8858 20.462C50.8536 21.8127 50.1597 23.0706 49.0472 23.0742L47.2125 23.0804ZM38.688 18.0307L40.0349 18.0322C41.2927 18.0336 41.4964 19.5351 41.4964 20.3912V28.0998C41.4964 29.5878 41.0516 30.4736 39.5611 30.4736H38.688V31.4944H50.0704C50.8141 31.4944 51.6886 31.4607 52.6961 31.421C53.7027 31.3811 54.555 31.2257 55.2519 30.9553C56.7369 30.3781 57.6735 29.2211 57.6589 27.4873C57.6378 25.0053 55.8635 24.0273 53.7999 23.7619C53.234 23.6893 52.3861 23.653 51.2553 23.653V23.494C52.2011 23.494 53.4677 23.4591 54.5354 23.1041C55.7012 22.7163 56.6304 21.7278 56.646 20.2031C56.6677 18.1004 54.4926 17.3003 52.8354 17.113C52.0142 17.0208 50.8756 16.974 49.4198 16.974L38.688 16.994V18.0307ZM48.8853 30.4699L47.4912 30.4736H47.2125V24.1249L49.2646 24.1259C50.5034 24.1268 51.6543 25.3337 51.6543 27.1641C51.6543 29.1946 50.7425 30.4652 48.8853 30.4699ZM36.8557 24.346C36.2067 23.5698 35.2931 22.8543 34.2791 22.4506C33.2641 22.0465 32.2844 21.6922 31.3397 21.3876C30.3946 21.0827 29.655 20.8311 29.1207 20.6326C28.4409 20.3799 27.4371 20.1781 27.7363 19.1888C27.8833 18.7027 28.6677 18.0307 29.8329 18.0307C31.2932 18.0307 32.5109 18.4475 33.4536 19.1409C34.3375 19.791 34.9801 20.6845 35.3536 21.7057H36.2627L36.2983 16.8465H35.3716C34.9241 18.2467 33.8309 17.7922 33.257 17.5838C32.9619 17.4771 32.6844 17.3504 32.2399 17.2114C31.3759 16.9406 30.5524 16.7754 29.6695 16.7754C28.0738 16.7754 26.6641 17.1784 25.4406 18.0794C24.217 18.98 23.6051 20.1272 23.6051 21.4251C23.6051 23.0816 24.5431 24.3678 25.3475 24.8034C26.5022 25.4285 27.6092 25.8964 28.647 26.254C29.6844 26.6113 30.6693 26.9471 31.598 27.2575C32.5204 27.5661 33.5555 27.8372 33.4182 28.8428C33.2821 29.8375 31.8833 30.17 30.9745 30.1606C29.9004 30.1493 28.6739 29.7943 27.5654 29.1579C26.0193 28.2696 24.7023 26.8328 24.3499 25.0139H23.3837V31.7187H24.3499C24.3695 30.7716 24.7696 30.2071 25.5622 30.1493C26.4258 30.0865 26.945 30.5081 27.614 30.8769C28.9062 31.5892 30.1925 31.7394 31.4439 31.7394C34.412 31.7394 37.7144 30.3076 37.6855 27.0139C37.6757 25.9009 37.5161 25.1356 36.8557 24.346ZM10.1584 23.0804L10.1747 18.0311L11.1531 18.0307C12.4146 18.0773 13.8714 18.8051 13.8317 20.462C13.7995 21.8127 13.1056 23.0706 11.9931 23.0742L10.1584 23.0804ZM1.63391 18.0307L2.98081 18.0322C4.23866 18.0336 4.44235 19.5351 4.44235 20.3912V28.0998C4.44235 29.5878 3.99753 30.4736 2.50701 30.4736H1.63391V31.4944H13.0164C13.76 31.4944 14.6345 31.4607 15.642 31.421C16.6487 31.3811 17.501 31.2257 18.1978 30.9553C19.6828 30.3781 20.6195 29.2211 20.6048 27.4873C20.5838 25.0053 18.8094 24.0273 16.7458 23.7619C16.1799 23.6893 15.332 23.653 14.2012 23.653V23.494C15.147 23.494 16.4136 23.4591 17.4813 23.1041C18.6471 22.7163 19.5763 21.7278 19.5919 20.2031C19.6136 18.1004 17.4385 17.3003 15.7813 17.113C14.9602 17.0208 13.8215 16.974 12.3657 16.974L1.63391 16.994V18.0307ZM11.8312 30.4699L10.4372 30.4736H10.1584V24.1249L12.2105 24.1259C13.4493 24.1268 14.6002 25.3337 14.6002 27.1641C14.6002 29.1946 13.6884 30.4652 11.8312 30.4699ZM152.901 31.4944V30.4699H152.213C151.453 30.4699 151.055 30.1265 150.435 29.2708L147.003 24.5417L147.392 24.0945C147.875 23.5404 148.592 23.0896 150.181 23.0896H150.938V22.056H145.039L145.041 23.0896H145.55C146.448 23.0896 146.217 23.9379 145.708 24.3718L143.273 26.4461L143.274 25.2629L143.274 16.994H136.907L136.913 18.0319L137.587 18.0315C138.187 18.0311 138.859 18.1364 138.859 19.5653V28.6693C138.859 29.774 138.994 30.4696 137.873 30.4699H137.542V31.4944L144.621 31.4954V30.4699L144.266 30.4637C143.559 30.4699 143.343 30.1654 143.343 29.0218V27.7218L143.848 27.2644L145.027 28.8424C145.514 29.4273 146.037 30.4699 145.483 30.4699H145.312L145.31 31.4871L152.901 31.4944Z" fill="#43465D"/>
<path fill-rule="evenodd" clip-rule="evenodd" d="M83.4085 29.4125L83.364 29.8659L83.2971 30.3096L83.2085 30.7463L83.098 31.1754L82.9673 31.5965L82.8166 32.0093L82.6461 32.413L82.4566 32.8065L82.2487 33.1902L82.0233 33.563L81.7805 33.925L81.521 34.2749L81.2456 34.6129L80.9546 34.9382L80.6487 35.2501L80.328 35.5481L79.9943 35.8323L79.6469 36.1017L79.2872 36.3562L78.915 36.5943L78.5313 36.8168L78.1367 37.0223L77.7318 37.2107L77.3165 37.3814L76.8924 37.5339L76.4594 37.6674L76.018 37.7822L75.569 37.8765L75.1129 37.9514L74.6504 38.0051L74.1815 38.0374L73.7074 38.0479L73.2367 38.0362L72.7708 38.0029L72.3104 37.9481L71.8559 37.8725L71.4087 37.777L70.9683 37.6617L70.536 37.527L70.1121 37.3734L69.6971 37.202L69.2921 37.0125L68.8971 36.8063L68.5126 36.5831L68.1401 36.3439L67.7791 36.089L67.4307 35.8189L67.0952 35.5343L66.7737 35.2355L66.4667 34.9229L66.1742 34.5973L65.8971 34.259L65.6363 33.9086L65.3918 33.5464L65.165 33.1731L64.9557 32.7891L64.7652 32.3949L64.5934 31.9915L64.442 31.5787L64.3102 31.1572L64.1999 30.7282L64.1109 30.2915L64.044 29.8478L63.9999 29.3952L63.6198 14.5567H63.612L63.6096 13.1685L67.866 10.0616L69.7967 11.4702L73.6616 8.65234L77.5349 11.4785L79.4607 10.0744L83.7314 13.192L83.4085 29.4125Z" fill="#2B2A29"/>
<path fill-rule="evenodd" clip-rule="evenodd" d="M83.0929 29.3906L83.3881 14.5596H63.936L64.315 29.3722C64.8206 34.5329 69.0899 37.5973 73.7077 37.7091C78.3427 37.6086 82.5835 34.5671 83.0929 29.3906Z" fill="#43465D"/>
<path fill-rule="evenodd" clip-rule="evenodd" d="M69.955 5.6367L70.2633 6.3806L71.0121 6.46334C71.1082 6.47383 71.117 6.46004 71.0413 6.5327L70.4749 7.07614L70.6324 7.86286C70.6528 7.96412 70.6678 7.96844 70.5798 7.914L69.9214 7.50598L69.27 7.90968C69.1865 7.96123 69.1872 7.9779 69.2082 7.87191L69.3678 7.07614L68.8078 6.53887C68.7358 6.46951 68.7212 6.47527 68.8221 6.46406L69.5793 6.3806L69.8843 5.64503C69.9234 5.55036 69.9139 5.53729 69.955 5.6367ZM66.5206 6.84893L66.8293 7.59273L67.5778 7.67546C67.6742 7.68606 67.6828 7.67227 67.607 7.74482L67.0406 8.28827L67.1985 9.07498C67.2185 9.17624 67.2334 9.18056 67.1458 9.12613L66.487 8.71811L65.836 9.1218C65.7522 9.17336 65.7528 9.19003 65.7742 9.08373L65.9335 8.28827L65.3736 7.751C65.3016 7.68164 65.2869 7.6875 65.3881 7.6766L66.1451 7.59273L66.4501 6.85726C66.4894 6.76248 66.4796 6.74972 66.5206 6.84893ZM63.6376 8.64988L63.9459 9.39337L64.6947 9.47652C64.7908 9.48702 64.7993 9.47323 64.7239 9.54578L64.1575 10.0892L64.3151 10.8759C64.3354 10.9769 64.3503 10.9816 64.2624 10.9272L63.6039 10.5191L62.9526 10.9224C62.869 10.9743 62.8697 10.991 62.8912 10.8847L63.0504 10.0892L62.4901 9.55164C62.4184 9.4827 62.4038 9.48846 62.5047 9.47724L63.2616 9.39337L63.5669 8.65821C63.606 8.56344 63.5965 8.55037 63.6376 8.64988ZM77.4385 5.6367L77.7472 6.3806L78.4957 6.46334C78.5921 6.47383 78.6006 6.46004 78.5249 6.5327L77.9587 7.07614L78.1163 7.86286C78.1363 7.96412 78.1513 7.96844 78.0637 7.914L77.4049 7.50598L76.7539 7.90968C76.67 7.96123 76.6707 7.9779 76.692 7.87191L76.8517 7.07614L76.2914 6.53887C76.2194 6.46951 76.2048 6.47527 76.3059 6.46406L77.0629 6.3806L77.3679 5.64503C77.4073 5.55036 77.3974 5.53729 77.4385 5.6367ZM80.8728 6.84893L81.1815 7.59273L81.9299 7.67546C82.026 7.68606 82.0345 7.67227 81.9591 7.74482L81.3927 8.28827L81.5503 9.07498C81.5707 9.17624 81.5856 9.18056 81.4976 9.12613L80.8392 8.71811L80.1878 9.1218C80.1043 9.17336 80.105 9.19003 80.126 9.08373L80.2856 8.28827L79.7256 7.751C79.6536 7.68164 79.6391 7.6875 79.7399 7.6766L80.4969 7.59273L80.8021 6.85726C80.8412 6.76248 80.8314 6.74972 80.8728 6.84893ZM83.7885 8.68435L84.0969 9.42815L84.8456 9.51099C84.9418 9.5219 84.9502 9.5077 84.8749 9.58035L84.3084 10.1238L84.466 10.9104C84.4864 11.0118 84.5013 11.0161 84.4134 10.9617L83.7549 10.5535L83.1036 10.9569C83.02 11.0092 83.0207 11.0256 83.042 10.9195L83.2014 10.1238L82.6414 9.58642C82.5694 9.51748 82.5548 9.52334 82.6557 9.51202L83.4126 9.42815L83.7179 8.69269C83.7569 8.59832 83.7475 8.58525 83.7885 8.68435ZM73.7128 5.18659L74.0215 5.93008L74.77 6.01323C74.8664 6.02372 74.8749 6.00994 74.7992 6.08248L74.2327 6.62593L74.3903 7.41264C74.4107 7.51359 74.4256 7.51833 74.338 7.46389L73.6792 7.05577L73.0282 7.45916C72.9444 7.51102 72.9454 7.52769 72.9664 7.42139L73.1257 6.62593L72.5657 6.08835C72.4938 6.0194 72.4791 6.02516 72.5803 6.01395L73.3373 5.93008L73.6423 5.19492C73.6813 5.10015 73.6717 5.08708 73.7128 5.18659Z" fill="#43465D"/>
<path fill-rule="evenodd" clip-rule="evenodd" d="M79.4612 10.4805L83.4289 13.3608L83.413 14.2423L63.9262 14.2204L63.9052 13.3365L67.8665 10.4675L69.797 11.876L73.6616 9.05859L77.535 11.8847L79.4612 10.4805Z" fill="#FEFEFE"/>
<path fill-rule="evenodd" clip-rule="evenodd" d="M73.6623 14.5596H83.471L83.0907 29.3725C82.6288 34.55 78.3428 37.6141 73.6623 37.7095V14.5596Z" fill="#FEFEFE"/>
<path fill-rule="evenodd" clip-rule="evenodd" d="M73.6617 34.2584V32.4847C73.588 32.4869 73.516 32.5394 73.516 32.6433V32.7181C73.5139 32.5824 73.2987 32.5834 73.2987 32.7192V34.0239C73.2987 34.1597 73.5139 34.1607 73.516 34.0253V34.0998C73.516 34.2036 73.588 34.2566 73.6617 34.2584ZM73.0616 34.0203C72.9889 34.0207 72.938 34.0279 72.9075 34.0424C72.9105 34.0846 72.9343 34.1459 72.9788 34.2254C73.0413 34.3375 73.1 34.4534 73.1465 34.5768C73.1965 34.7103 73.2277 34.8472 73.2256 34.9881C73.2229 35.268 73.12 35.594 72.904 35.8281C72.7258 36.021 72.4752 36.1524 72.1458 36.1498C71.8411 36.1469 71.5787 36.0191 71.3865 35.8158C71.1882 35.6059 71.0659 35.3152 71.052 34.9997C71.0377 34.6763 71.1718 34.4316 71.2825 34.2298C71.3294 34.1441 71.415 34.1317 71.3905 34.1041C71.3814 34.0936 71.3294 34.1499 71.2425 34.193C71.1171 34.2552 70.9769 34.3244 70.8048 34.3506C70.7639 34.3568 70.7219 34.3601 70.679 34.3608C70.4254 34.3659 70.2258 34.266 70.0811 34.107C69.9428 33.9556 69.86 33.7524 69.8321 33.54C69.8261 33.4946 69.8226 33.4464 69.8219 33.3958C69.821 33.3319 69.8243 33.2696 69.8321 33.2097C69.8597 33.0009 69.9395 32.8012 70.0715 32.6502C70.2108 32.4912 70.4034 32.387 70.6482 32.3823C70.6998 32.3816 70.7524 32.3845 70.8048 32.3925C70.9769 32.4182 71.1171 32.4879 71.2425 32.55C71.3294 32.5932 71.3814 32.6495 71.3905 32.639C71.415 32.6114 71.3294 32.599 71.2825 32.513C71.1718 32.3115 71.0377 32.0668 71.052 31.7434C71.0659 31.4279 71.1882 31.1371 71.3865 30.9272C71.5787 30.7236 71.8411 30.5959 72.1458 30.5933C72.4752 30.5907 72.7258 30.7221 72.904 30.9153C73.12 31.1491 73.2229 31.4751 73.2256 31.755C73.2277 31.8959 73.1965 32.0327 73.1465 32.1659C73.1 32.2901 73.0413 32.4056 72.9788 32.5173C72.9343 32.5972 72.9105 32.6585 72.9075 32.7007C72.938 32.7152 72.9889 32.7224 73.0616 32.7228V33.2133C72.8966 33.2129 72.7638 33.1802 72.664 33.1166C72.5944 33.0724 72.5407 33.0144 72.5034 32.9439C72.4667 32.8738 72.448 32.7958 72.448 32.7105C72.448 32.5805 72.4935 32.432 72.5842 32.2683C72.6385 32.1706 72.6884 32.0744 72.7213 31.9858C72.7509 31.9071 72.7696 31.8308 72.7686 31.7608C72.7669 31.5923 72.7061 31.397 72.5777 31.258C72.4799 31.1527 72.3394 31.0805 72.1492 31.0819C71.9719 31.0833 71.8197 31.1571 71.709 31.2739C71.5905 31.3996 71.5176 31.5749 71.509 31.7662C71.5012 31.9456 71.5977 32.1209 71.6772 32.2661C71.8211 32.5285 71.9349 32.7359 71.7244 32.974C71.5067 33.2209 71.3022 33.1192 71.0506 32.9947C70.9538 32.9467 70.8455 32.8927 70.7419 32.8775C70.71 32.8723 70.6812 32.8706 70.6557 32.8709C70.548 32.8731 70.4652 32.9167 70.4067 32.9835C70.3412 33.0586 70.3004 33.1639 70.2858 33.2768C70.2807 33.3149 70.2784 33.3523 70.2791 33.3882C70.2794 33.4144 70.2818 33.4427 70.2858 33.4728C70.3004 33.5868 70.3418 33.6921 70.4091 33.7658C70.4699 33.8326 70.5572 33.8743 70.6719 33.8722C70.6919 33.8718 70.7154 33.87 70.7419 33.8656C70.8455 33.8504 70.9538 33.7962 71.0506 33.7484C71.3022 33.6239 71.5067 33.5222 71.7244 33.7687C71.9349 34.0072 71.8211 34.2141 71.6772 34.477C71.5977 34.6222 71.5012 34.7975 71.509 34.9765C71.5176 35.1682 71.5905 35.3435 71.709 35.4691C71.8197 35.586 71.9719 35.6593 72.1492 35.6612C72.3394 35.6626 72.4799 35.5907 72.5777 35.4851C72.7061 35.3461 72.7669 35.1508 72.7686 34.9823C72.7696 34.9122 72.7509 34.836 72.7213 34.7572C72.6884 34.6687 72.6385 34.5725 72.5842 34.4748C72.4935 34.3111 72.448 34.1626 72.448 34.0326H72.449C72.449 33.9462 72.467 33.8682 72.5034 33.7992C72.5407 33.7284 72.5944 33.6707 72.664 33.6263C72.7638 33.5633 72.8966 33.5302 73.0616 33.5298V34.0203Z" fill="#43465D"/>
<path fill-rule="evenodd" clip-rule="evenodd" d="M73.1736 33.348C72.7749 33.3472 72.3233 33.2437 72.3233 32.7112C72.3233 32.5311 72.3919 32.3533 72.4768 32.2008C72.5393 32.0882 72.6453 31.8962 72.6435 31.7629C72.6402 31.4554 72.4463 31.214 72.1505 31.2166C71.8564 31.2187 71.6479 31.4663 71.6343 31.7731C71.6282 31.9168 71.7195 32.0791 71.7851 32.1989C71.9501 32.5002 72.0781 32.7692 71.8153 33.0666C71.5528 33.3642 71.2991 33.2658 70.9982 33.1166C70.8586 33.0477 70.6281 32.9272 70.4983 33.0757C70.3751 33.2168 70.3717 33.5334 70.499 33.6732C70.6284 33.8155 70.8613 33.6954 70.9982 33.6279C71.2991 33.4786 71.5528 33.3803 71.8153 33.6776C72.0781 33.9749 71.9501 34.2443 71.7851 34.5452C71.7195 34.6649 71.6282 34.8272 71.6343 34.971C71.674 35.868 73.0914 35.6477 72.4768 34.5437C72.2836 34.1963 72.2255 33.7505 72.6001 33.512C72.7818 33.3962 72.9712 33.3969 73.1736 33.3962V33.348ZM73.1869 32.6356C73.2229 32.5275 73.3292 32.4774 73.4297 32.4861C73.5306 32.3089 73.8016 32.3089 73.9027 32.4861C73.9876 32.4788 74.0766 32.5137 74.1241 32.5895H77.5018H77.627V33.3475H74.1585V33.3965H77.627V34.1549H77.0593V34.1934H77.4036V34.8287H77.0593V34.9289H77.4036V35.9323H76.809V35.5645H76.7152V35.9323H76.121V34.9289H76.4649V34.8287H76.121V34.461H76.0268V34.8287H75.6829V34.9289H76.0268V35.9323H75.4326V35.5645H75.3389V35.9323H74.7443V34.9289H75.0886V34.8287H74.7443V34.1934H75.0886V34.1549H74.1241V34.1542C74.0766 34.2308 73.9876 34.2653 73.9027 34.2584C73.8016 34.4356 73.5306 34.4356 73.4293 34.2584C73.3288 34.2667 73.2229 34.2167 73.1869 34.1088V34.1545L73.0847 34.1549C73.0854 34.1557 73.086 34.1568 73.0863 34.1578C73.3906 34.7053 73.5051 35.3837 73.0473 35.8779C72.8378 36.1037 72.5481 36.2355 72.2537 36.266C71.5076 36.3436 70.9629 35.8118 70.9273 35.0066C70.9174 34.787 70.9667 34.6019 71.0454 34.4211C70.6746 34.5492 70.2997 34.539 69.9917 34.201C69.6008 33.7726 69.5994 32.9951 69.9805 32.5594C70.2865 32.2095 70.6692 32.1949 71.0454 32.3238C70.9667 32.143 70.9174 31.9575 70.9273 31.7375C70.9585 31.0286 71.4739 30.4659 72.145 30.46C72.8317 30.4542 73.3431 31.0289 73.3512 31.7538C73.3543 32.0566 73.2276 32.3325 73.0863 32.5862C73.086 32.5874 73.0854 32.5885 73.0847 32.5895H73.1869V32.6356Z" fill="#2B2A29"/>
<path d="M73.5161 32.7182C73.5143 32.5824 73.2991 32.5835 73.2991 32.7192V34.024C73.2991 34.1601 73.5143 34.1608 73.5161 34.0254V34.0998C73.5161 34.3115 73.8163 34.3118 73.8163 34.0998V34.0254C73.8179 34.1608 74.0336 34.1597 74.0336 34.024V32.7192C74.0336 32.5835 73.8179 32.5824 73.8163 32.7182V32.6437C73.8163 32.4317 73.5161 32.4321 73.5161 32.6437V32.7182ZM77.5019 33.2137H74.1531V32.7228H77.5019V33.2137ZM77.2784 35.7981H76.9344V35.4304H76.59V35.7981H76.246V35.0626H76.59V34.6948H76.246V34.3267H75.902V34.6948H75.5581V35.0626H75.902V35.7981H75.5581V35.4304H75.2136V35.7981H74.8697V35.0626H75.2136V34.6948H74.8697V34.3267H75.2136V34.0207H74.1531V33.5299H77.5019V34.0207H76.9344V34.3267H77.2784V34.6948H76.9344V35.0626H77.2784V35.7981ZM73.1578 34.0207C72.9659 34.0211 72.881 34.0501 72.9792 34.2258C74.09 36.2261 71.1379 36.9326 71.0523 35.0001C71.0381 34.6763 71.1722 34.432 71.2829 34.2302C71.3298 34.1445 71.4153 34.1318 71.3913 34.1045C71.3817 34.0936 71.3298 34.1499 71.2425 34.1931C70.854 34.3863 70.4224 34.4814 70.0814 34.1074C69.7371 33.7303 69.7367 33.0336 70.0719 32.6503C70.4068 32.2673 70.8445 32.3526 71.2425 32.5501C71.3298 32.5933 71.3817 32.6499 71.3913 32.639C71.4153 32.6118 71.3298 32.599 71.2829 32.5134C71.1722 32.3115 71.0381 32.0669 71.0523 31.7434C71.0805 31.1053 71.5417 30.5992 72.1462 30.5933C72.7628 30.5883 73.2193 31.1027 73.226 31.755C73.2295 32.0295 73.1072 32.2872 72.9792 32.5177C72.8814 32.6928 72.9655 32.7228 73.1578 32.7228V33.2137C72.8555 33.213 72.4484 33.0797 72.4484 32.7109C72.4484 32.5806 72.4936 32.4321 72.5845 32.2687C72.6623 32.1285 72.771 31.9279 72.769 31.7609C72.7649 31.3786 72.5136 31.0791 72.1499 31.0823C71.7889 31.0853 71.5264 31.3888 71.5094 31.7666C71.5016 31.946 71.5978 32.1213 71.6772 32.2661C71.8215 32.5291 71.935 32.7359 71.7243 32.9744C71.5067 33.221 71.3022 33.1196 71.051 32.9951C70.854 32.8975 70.5874 32.7777 70.4071 32.9839C70.238 33.1771 70.235 33.5749 70.4095 33.7662C70.5902 33.9644 70.8574 33.8446 71.051 33.7488C71.3022 33.6239 71.5067 33.5226 71.7243 33.7691C71.935 34.0073 71.8215 34.2146 71.6772 34.4774C71.5978 34.6223 71.5016 34.7979 71.5094 34.9769C71.559 36.0958 73.3076 35.7731 72.5845 34.4748C72.4294 34.1953 72.3536 33.8246 72.6643 33.6264C72.7639 33.5633 72.9931 33.5302 73.1578 33.5299V34.0207Z" fill="#43465D"/>
<path fill-rule="evenodd" clip-rule="evenodd" d="M70.3812 22.8953H70.621V22.3693C70.621 22.3242 70.6526 22.288 70.6951 22.288H71.4473C71.4893 22.288 71.5233 22.3217 71.5233 22.3671V22.8953H72.2273V22.3693C72.2273 22.3242 72.2588 22.288 72.3017 22.288H73.0539C73.0956 22.288 73.1295 22.3217 73.1295 22.3671V22.8953H73.6587C73.7004 22.8953 73.7343 22.9291 73.7343 22.9745V25.7342C73.7343 25.8079 73.7341 25.8395 73.6692 25.8395C73.2175 25.8395 72.8419 26.229 72.8419 26.7237C72.8419 27.5551 72.8403 28.3868 72.8403 29.2185C72.8403 29.2621 72.8072 29.2976 72.7662 29.2976H71.8945C71.8537 29.2976 71.8205 29.2621 71.8205 29.2185V29.074H71.0852L71.1029 29.212C71.1079 29.2599 71.0815 29.3027 71.0346 29.3056C70.1992 29.3583 69.3666 29.4639 68.5288 29.4639C67.6914 29.4639 66.8584 29.3583 66.0233 29.3056C65.9802 29.3006 65.9486 29.2635 65.9544 29.216L66.1853 27.3845C66.189 27.3417 66.2236 27.3101 66.2637 27.3127L66.3798 27.3213L66.8169 20.7981L66.4094 20.4819C66.3873 20.4659 66.3754 20.4427 66.3754 20.4132V19.3368C66.3754 19.2933 66.4084 19.2577 66.4494 19.2577H66.9602L68.4419 17.1801V16.8839L68.4415 16.8788V16.8766V16.0308C68.4415 15.9869 68.4748 15.9517 68.5155 15.9517H68.5176H69.1814H69.8478C69.8885 15.9517 69.9218 15.9869 69.9218 16.0308C69.9218 16.0536 69.9126 16.074 69.8984 16.0885L69.5726 16.4548L69.9014 16.8243C69.9293 16.8559 69.9282 16.906 69.8987 16.9362C69.8844 16.9507 69.8661 16.9576 69.8478 16.9576V16.958H68.5899V17.1932L70.1262 19.2577H70.6064C70.6485 19.2577 70.6825 19.2915 70.6825 19.3368V20.4151C70.6825 20.4434 70.6686 20.4677 70.6482 20.4819L70.2407 20.7981L70.3812 22.8953Z" fill="#FEFEFE"/>
<path fill-rule="evenodd" clip-rule="evenodd" d="M68.865 23.4304L68.9777 21.9256C68.9777 21.202 68.0762 21.2056 68.0762 21.9256L68.1886 23.4304H68.865Z" fill="#43465D"/>
<path fill-rule="evenodd" clip-rule="evenodd" d="M78.8045 15.9512H78.8065H79.4704H80.1366C80.1775 15.9512 80.2107 15.9868 80.2107 16.0303C80.2107 16.0533 80.2015 16.0735 80.1869 16.088L79.8612 16.4544L80.19 16.8239C80.2182 16.8555 80.2171 16.9056 80.1876 16.9358C80.173 16.9503 80.1546 16.9572 80.1366 16.9572V16.9575H78.8785V17.1801L80.3598 19.2573H80.8708C80.9116 19.2573 80.9448 19.2929 80.9448 19.3365V20.4129C80.9448 20.4422 80.933 20.4658 80.911 20.4814L80.5034 20.7976L80.9401 27.3209L81.0566 27.3122C81.0967 27.3096 81.1313 27.3416 81.1347 27.3841L81.3656 29.2159C81.3718 29.263 81.3402 29.3001 81.2971 29.3052C80.4616 29.3578 79.6289 29.4635 78.7912 29.4635C77.9538 29.4635 77.1211 29.3578 76.2857 29.3052C76.2388 29.3023 76.2123 29.2594 76.2174 29.2115L76.2351 29.0736H75.4995V29.2181C75.4995 29.2616 75.4666 29.2972 75.4255 29.2972H74.5541C74.513 29.2972 74.4801 29.2616 74.4801 29.2181C74.4801 28.3864 74.4784 27.5547 74.4784 26.7233C74.4784 26.2286 74.1025 25.839 73.6512 25.839C73.5863 25.839 73.5856 25.8078 73.5856 25.7337V22.974C73.5856 22.9286 73.6196 22.8948 73.6617 22.8948H74.1907V22.3666C74.1907 22.3212 74.2247 22.2875 74.2665 22.2875H75.0187C75.0615 22.2875 75.0927 22.3238 75.0927 22.3688V22.8948H75.7971V22.3666C75.7971 22.3212 75.831 22.2875 75.8727 22.2875H76.6249C76.6677 22.2875 76.699 22.3238 76.699 22.3688V22.8948H76.9391L77.0794 20.7976L76.6722 20.4814C76.6518 20.4673 76.6379 20.4433 76.6379 20.415C76.6379 20.0553 76.6379 19.6958 76.6379 19.3365C76.6379 19.2911 76.6718 19.2573 76.7136 19.2573H77.1941L78.7304 17.1927V16.8835V16.8784V16.8762V16.0303C78.7304 15.9868 78.7637 15.9512 78.8045 15.9512Z" fill="#43465D"/>
<path fill-rule="evenodd" clip-rule="evenodd" d="M78.3668 21.9539L78.4727 23.37H79.1094L79.2154 21.9539C79.2154 21.2729 78.3668 21.2761 78.3668 21.9539Z" fill="#FEFEFE"/>
<path fill-rule="evenodd" clip-rule="evenodd" d="M66.2022 28.4316C66.9765 28.5088 67.7497 28.6253 68.5288 28.6253C69.3077 28.6253 70.081 28.5088 70.8553 28.4316L70.9463 29.1528C70.1408 29.207 69.3366 29.3056 68.5288 29.3056C67.7209 29.3056 66.9167 29.207 66.1112 29.1528L66.2022 28.4316ZM66.9174 20.6808H70.1401L70.3802 20.4942H66.6773L66.9174 20.6808ZM66.9622 20.8392L66.5272 27.3326C67.1928 27.3904 67.8608 27.4684 68.5288 27.4702C69.1961 27.4688 69.8647 27.3899 70.5303 27.3326L70.0953 20.8392H66.9622ZM70.534 19.4161H70.1364V19.8716C70.1364 19.9152 70.1031 19.9508 70.0623 19.9508H69.5162C69.4755 19.9508 69.4422 19.9152 69.4422 19.8716V19.4161H68.8792V19.8695C68.8792 19.9145 68.8476 19.9508 68.8052 19.9508H68.2541C68.2123 19.9508 68.1783 19.917 68.1783 19.8716V19.4161H67.6153V19.8695C67.6153 19.9145 67.5837 19.9508 67.5412 19.9508H66.9972C66.9551 19.9508 66.9211 19.917 66.9211 19.8716V19.4161H66.5232V20.336H70.534V19.4161ZM67.6784 28.4279C67.1921 28.3876 66.7068 28.3237 66.222 28.2747L66.3228 27.4749C66.7762 27.5087 67.2288 27.5591 67.6822 27.5929C67.6801 27.7585 67.6788 28.2435 67.6784 28.4279ZM69.2307 28.4395C68.7556 28.474 68.3012 28.4736 67.8265 28.4395C67.8269 28.266 67.8278 27.7708 67.8299 27.6035C68.3019 27.6343 68.7549 27.6343 69.2273 27.6035C69.229 27.7755 69.2303 28.271 69.2307 28.4395ZM69.989 19.3271L68.5117 17.3421L67.0692 19.3653V19.7925H67.4672V19.337C67.4672 19.2933 67.5005 19.2578 67.5412 19.2578H68.2523C68.2931 19.2578 68.3264 19.2933 68.3264 19.337V19.7925H68.7311V19.3391C68.7311 19.294 68.7627 19.2578 68.8052 19.2578H69.5142C69.5564 19.2578 69.5904 19.2916 69.5904 19.337V19.7925H69.9883V19.3391C69.9883 19.3347 69.9887 19.3311 69.989 19.3271ZM68.5895 16.1099V16.7997H69.6752L69.4171 16.5093C69.39 16.4787 69.39 16.4309 69.4171 16.4003L69.6752 16.1099H69.1814H68.5895ZM72.125 27.6278H72.6921V27.4474H72.125V27.6278ZM72.0663 28.2722H72.6918V27.786H72.0663V28.2722ZM72.2317 25.8787C72.1138 26.107 72.0422 26.367 72.0306 26.6443H72.6965C72.7064 26.5027 72.743 26.3691 72.8005 26.2493L72.2317 25.8787ZM72.8775 26.1146C72.9295 26.0381 72.9906 25.9687 73.0599 25.9095C72.6758 25.3081 72.6877 25.3265 72.5244 25.0702C72.3451 25.2122 72.1895 25.3868 72.0663 25.5857C72.3278 25.756 72.3913 25.7978 72.8775 26.1146ZM73.1876 25.047C73.0521 25.0912 72.9244 25.1541 72.8066 25.2321L73.1818 25.8206C73.2362 25.7872 73.2936 25.7593 73.3533 25.7371C73.298 25.5073 73.2429 25.2772 73.1876 25.047ZM73.5863 24.1892C73.4379 24.1946 73.2909 24.2146 73.1451 24.2502C73.3017 24.8942 73.332 25.0187 73.4963 25.6976C73.5258 25.6917 73.5557 25.6878 73.5863 25.6848V24.1892ZM71.9685 29.139H72.6921V28.4304H71.9685V29.139ZM70.3812 22.8953H70.6209V22.369C70.6209 22.3243 70.6525 22.288 70.695 22.288H71.4472C71.4893 22.288 71.5233 22.3217 71.5233 22.3671V22.8953H72.2273V22.369C72.2273 22.3243 72.2588 22.288 72.3013 22.288H73.0535C73.0955 22.288 73.1295 22.3217 73.1295 22.3671V22.8953H73.6583C73.7004 22.8953 73.7343 22.9287 73.7343 22.9745V25.7339C73.7343 25.8079 73.734 25.8395 73.6692 25.8395C73.2175 25.8395 72.8419 26.2287 72.8419 26.7234C72.8419 27.5548 72.8402 28.3869 72.8402 29.2182C72.8402 29.2621 72.8069 29.2973 72.7661 29.2973H71.8945C71.8537 29.2973 71.8204 29.2621 71.8204 29.2182V29.0737H71.0852L71.1025 29.212C71.1079 29.26 71.0815 29.3025 71.0343 29.3053C70.1992 29.3583 69.3666 29.464 68.5288 29.464C67.691 29.464 66.8584 29.3583 66.0229 29.3053C65.9798 29.3006 65.9486 29.2636 65.9544 29.216L66.1853 27.3842C66.1887 27.3417 66.2233 27.3098 66.2637 27.3127L66.3798 27.321L66.8169 20.7981L66.4094 20.4819C66.3874 20.4659 66.3751 20.4427 66.3751 20.4129V19.337C66.3751 19.2933 66.4083 19.2578 66.4492 19.2578H66.9602L68.4419 17.1802V16.8836L68.4415 16.8788V16.8767V16.0308C68.4415 15.9869 68.4748 15.9517 68.5155 15.9517H68.5175H69.1814H69.8478C69.8885 15.9517 69.9218 15.9869 69.9218 16.0308C69.9218 16.0533 69.9126 16.074 69.898 16.0885L69.5724 16.4549L69.901 16.8244C69.9292 16.8556 69.9279 16.9057 69.8987 16.9359C69.8841 16.9504 69.8658 16.9577 69.8478 16.9577V16.958H68.5895V17.1932L70.1262 19.2578H70.6064C70.6482 19.2578 70.6821 19.2916 70.6821 19.337V20.4151C70.6821 20.4434 70.6685 20.4678 70.6482 20.4819L70.2406 20.7981L70.3812 22.8953ZM70.4124 23.3608H73.5863V23.0536H73.0555C73.0148 23.0536 72.9815 23.018 72.9815 22.9745V22.4463H72.3753V22.9745C72.3753 23.018 72.342 23.0536 72.3013 23.0536H71.4493C71.4082 23.0536 71.3753 23.018 71.3753 22.9745V22.4463H70.769V22.9745C70.769 23.018 70.7358 23.0536 70.695 23.0536H70.3917L70.4124 23.3608ZM70.4335 23.6752H73.5863V23.519H70.423L70.4335 23.6752ZM71.0652 28.9154H71.8204V28.3516C71.8204 28.3078 71.8537 28.2722 71.8945 28.2722H71.9182V27.7091C71.9182 27.6706 71.9413 27.6375 71.977 27.6296V27.4474C71.925 27.4474 71.8595 27.4462 71.8595 27.3678V26.7257C71.8595 26.7024 71.8679 26.6818 71.8815 26.6668C71.8904 26.3517 71.9705 26.0555 72.1053 25.7962L71.9243 25.6783C71.8897 25.6555 71.8785 25.6068 71.8999 25.5698C72.0497 25.3055 72.2626 25.0681 72.5013 24.8942C72.5349 24.8695 72.5807 24.8785 72.6038 24.9144L72.723 25.1014C72.8552 25.0132 72.9984 24.9432 73.1506 24.8938C73.0955 24.6661 73.0402 24.4389 72.9835 24.212C72.9733 24.1699 72.9971 24.1267 73.0364 24.1158C73.2155 24.0665 73.4012 24.0374 73.5863 24.0309V23.8334H70.444L70.6776 27.321L70.7938 27.3127C70.7938 27.3127 70.8679 27.35 70.8716 27.3806L71.0652 28.9154ZM72.6921 26.8026H72.0075V27.2887H72.6921V26.8026ZM70.8356 28.2747C70.3504 28.3237 69.8651 28.3876 69.3784 28.4279C69.3781 28.2482 69.3771 27.7632 69.3746 27.5929C69.8284 27.5591 70.281 27.5087 70.7347 27.4749L70.8356 28.2747Z" fill="#2B2A29"/>
<path fill-rule="evenodd" clip-rule="evenodd" d="M81.1176 28.4316C80.3432 28.5088 79.5701 28.6253 78.791 28.6253C78.012 28.6253 77.2387 28.5088 76.4645 28.4316L76.3735 29.1528C77.1789 29.207 77.9835 29.3056 78.791 29.3056C79.5988 29.3056 80.403 29.207 81.2085 29.1528L81.1176 28.4316ZM80.4023 20.6808H77.1797L76.9395 20.4942H80.6428L80.4023 20.6808ZM80.3575 20.8392L80.7926 27.3326C80.1269 27.3904 79.459 27.4684 78.791 27.4702C78.124 27.4688 77.4554 27.3899 76.7898 27.3326L77.2245 20.8392H80.3575ZM76.7857 19.4161H77.1834V19.8716C77.1834 19.9152 77.2167 19.9508 77.2574 19.9508H77.8035C77.8442 19.9508 77.8775 19.9152 77.8775 19.8716V19.4161H78.4405V19.8695C78.4405 19.9145 78.4721 19.9508 78.5146 19.9508H79.0658C79.1078 19.9508 79.1418 19.917 79.1418 19.8716V19.4161H79.7048V19.8695C79.7048 19.9145 79.7361 19.9508 79.7789 19.9508H80.3225C80.3647 19.9508 80.3986 19.917 80.3986 19.8716V19.4161H80.7966V20.336H76.7857V19.4161ZM79.6413 28.4279C80.1276 28.3876 80.6129 28.3237 81.0978 28.2747L80.9969 27.4749C80.5436 27.5087 80.0909 27.5591 79.6376 27.5929C79.6399 27.7585 79.641 28.2435 79.6413 28.4279ZM78.0894 28.4395C78.5641 28.474 79.0189 28.4736 79.4936 28.4395C79.4932 28.266 79.4919 27.7708 79.4903 27.6035C79.0178 27.6343 78.5648 27.6343 78.0928 27.6035C78.0908 27.7755 78.0898 28.271 78.0894 28.4395ZM77.3307 19.3271L78.808 17.3421L80.2505 19.3653V19.7925H79.8529V19.337C79.8529 19.2933 79.8196 19.2578 79.7789 19.2578H79.0678C79.0267 19.2578 78.9937 19.2933 78.9937 19.337V19.7925H78.5886V19.3391C78.5886 19.294 78.557 19.2578 78.5146 19.2578H77.8055C77.7634 19.2578 77.7295 19.2916 77.7295 19.337V19.7925H77.3314V19.3391C77.3314 19.3347 77.3314 19.3311 77.3307 19.3271ZM75.1948 27.6278H74.6276V27.4474H75.1948V27.6278ZM75.2535 28.2722H74.6276V27.786H75.2535V28.2722ZM75.0884 25.8787C75.206 26.107 75.2776 26.367 75.2891 26.6443H74.6232C74.6134 26.5027 74.5771 26.3691 74.5196 26.2493L75.0884 25.8787ZM74.4422 26.1146C74.3903 26.0381 74.3291 25.9687 74.2599 25.9095C74.644 25.3081 74.6321 25.3265 74.7954 25.0702C74.975 25.2122 75.1302 25.3868 75.2535 25.5857C74.9924 25.756 74.9288 25.7978 74.4422 26.1146ZM74.1326 25.047C74.2677 25.0912 74.3954 25.1541 74.5136 25.2321L74.138 25.8206C74.0837 25.7872 74.0263 25.7593 73.9665 25.7371C74.0219 25.5073 74.0768 25.2772 74.1326 25.047ZM73.7336 24.1892C73.8819 24.1946 74.0293 24.2146 74.1746 24.2502C74.0184 24.8942 73.9882 25.0187 73.8236 25.6976C73.794 25.6917 73.7641 25.6878 73.7336 25.6848V24.1892ZM75.3513 29.139H74.6276V28.4304H75.3513V29.139ZM76.9077 23.3608H73.7336V23.0536H74.2643C74.3054 23.0536 74.3384 23.018 74.3384 22.9745V22.4463H74.9445V22.9745C74.9445 23.018 74.9777 23.0536 75.0185 23.0536H75.8706C75.9117 23.0536 75.9446 23.018 75.9446 22.9745V22.4463H76.5507V22.9745C76.5507 23.018 76.584 23.0536 76.6248 23.0536H76.928L76.9077 23.3608ZM76.8866 23.6752H73.7336V23.519H76.8971L76.8866 23.6752ZM76.2546 28.9154H75.4994V28.3516C75.4994 28.3078 75.4665 28.2722 75.4253 28.2722H75.4016V27.7091C75.4016 27.6706 75.3785 27.6375 75.3429 27.6296V27.4474C75.3951 27.4474 75.4603 27.4462 75.4603 27.3678V26.7257C75.4603 26.7024 75.4518 26.6818 75.4382 26.6668C75.4294 26.3517 75.3493 26.0555 75.2144 25.7962L75.3955 25.6783C75.4301 25.6555 75.4413 25.6068 75.42 25.5698C75.2705 25.3055 75.0572 25.0681 74.8188 24.8942C74.7849 24.8695 74.739 24.8785 74.716 24.9144L74.5967 25.1014C74.4649 25.0132 74.3213 24.9432 74.1695 24.8938C74.2242 24.6661 74.2796 24.4389 74.3363 24.212C74.3465 24.1699 74.3227 24.1267 74.2833 24.1158C74.1047 24.0665 73.9186 24.0374 73.7336 24.0309V23.8334H76.8757L76.6425 27.321L76.526 27.3127C76.526 27.3127 76.452 27.35 76.4482 27.3806L76.2546 28.9154ZM74.6276 26.8026H75.312V27.2887H74.6276V26.8026ZM78.8782 16.1099V16.7997H79.964L79.7055 16.5093C79.6786 16.4787 79.6784 16.4309 79.7055 16.4003L79.964 16.1099H79.4701H78.8782ZM78.8042 15.9517H78.8059H79.4701H80.1361C80.1772 15.9517 80.2101 15.9869 80.2101 16.0308C80.2101 16.0533 80.2013 16.074 80.1867 16.0885L79.8611 16.4549L80.1898 16.8244C80.2176 16.8556 80.2165 16.9057 80.1871 16.9359C80.1727 16.9504 80.1545 16.9577 80.1361 16.9577V16.958H78.8782V17.1806L80.3596 19.2578H80.8706C80.9114 19.2578 80.9447 19.2933 80.9447 19.337V20.4129C80.9447 20.4427 80.9328 20.4659 80.9104 20.4819L80.5032 20.7981L80.9399 27.321L81.056 27.3127C81.0965 27.3098 81.1311 27.3417 81.1345 27.3842L81.3654 29.216C81.3715 29.2636 81.3399 29.3006 81.2968 29.3053C80.4614 29.3583 79.6288 29.464 78.791 29.464C77.9536 29.464 77.1209 29.3583 76.2855 29.3053C76.2387 29.3025 76.2118 29.26 76.2173 29.212L76.2346 29.0737H75.4994V29.2182C75.4994 29.2621 75.4665 29.2973 75.4253 29.2973H74.5536C74.5129 29.2973 74.4796 29.2621 74.4796 29.2182C74.4796 28.3869 74.4779 27.5548 74.4779 26.7234C74.4779 26.2287 74.1023 25.8395 73.651 25.8395C73.5862 25.8395 73.5855 25.8079 73.5855 25.7339V22.9745C73.5855 22.9287 73.6194 22.8953 73.6616 22.8953H74.1903V22.3671C74.1903 22.3217 74.2242 22.288 74.2664 22.288H75.0185C75.061 22.288 75.0926 22.3243 75.0926 22.369V22.8953H75.7968V22.3671C75.7968 22.3217 75.8308 22.288 75.8726 22.288H76.6248C76.6672 22.288 76.6988 22.3243 76.6988 22.369V22.8953H76.9389L77.0791 20.7981L76.672 20.4819C76.6512 20.4678 76.6377 20.4434 76.6377 20.4151C76.6377 20.0557 76.6377 19.6963 76.6377 19.337C76.6377 19.2916 76.6716 19.2578 76.7134 19.2578H77.1936L78.7302 17.1929V16.8836V16.8788V16.8767V16.0308C78.7302 15.9869 78.7632 15.9517 78.8042 15.9517ZM76.4845 28.2747C76.9698 28.3237 77.4547 28.3876 77.9413 28.4279C77.9417 28.2482 77.9431 27.7632 77.9451 27.5929C77.4914 27.5591 77.0388 27.5087 76.5854 27.4749L76.4845 28.2747Z" fill="#2B2A29"/>
<path d="M69.1116 21.9539L69.0056 23.4528C69.0056 23.5011 68.9716 23.5399 68.9262 23.5399C68.6979 23.5399 68.3574 23.5338 68.1305 23.5418C68.0864 23.5418 68.0507 23.5037 68.0507 23.4569L67.9447 21.9539C67.9447 21.0539 69.1116 21.051 69.1116 21.9539ZM68.104 21.9539L68.21 23.37H68.8467L68.9526 21.9539C68.9526 21.2729 68.104 21.2761 68.104 21.9539Z" fill="#2B2A29"/>
<path d="M79.3744 21.9539L79.2684 23.4528C79.2684 23.5011 79.2344 23.5399 79.189 23.5399C78.9611 23.5399 78.6201 23.5338 78.3932 23.5418C78.3492 23.5418 78.3138 23.5037 78.3138 23.4569L78.2075 21.9539C78.2075 21.0539 79.3744 21.051 79.3744 21.9539ZM78.3668 21.9539L78.4728 23.37H79.1094L79.2154 21.9539C79.2154 21.2729 78.3668 21.2761 78.3668 21.9539Z" fill="#2B2A29"/>
</svg>
