<svg width="62" height="65" viewBox="0 0 62 65" fill="none" xmlns="http://www.w3.org/2000/svg">
<path d="M43.4592 17.243C40.9635 12.4077 35.9118 12.381 30.306 14.0075L27.5308 7.01027L23.2809 8.77408L25.9074 15.5623C24.8188 16.0218 23.7302 16.4813 22.4629 16.9106L19.762 10.0179L15.6165 11.7074L18.3917 18.7046L9.81749 22.1277L11.6281 26.6633C11.6281 26.6633 14.7894 25.359 14.685 25.4333C16.4445 24.8114 17.4268 25.5291 17.8427 26.335L25.3666 45.5361C25.4551 46.1027 25.5577 47.1314 24.2903 47.5607C24.3647 47.6652 21.2334 48.7907 21.2334 48.7907L22.4316 54.234L31.0801 50.9154L33.9297 58.0172L38.2539 56.3579L35.4787 49.3607C36.6417 49.0056 37.8347 48.4718 38.9233 48.0123L41.6985 55.0095L46.0228 53.3502L43.2476 46.353C50.227 43.1199 54.6292 39.3591 52.4948 32.3784C50.8647 26.77 47.3353 25.3458 42.9084 25.9763C44.6113 23.506 45.3459 20.78 43.4592 17.243ZM43.4604 34.7123C45.5081 40.0234 36.279 42.968 33.3265 44.1238L29.6611 34.7694C32.5392 33.5092 41.2639 29.1921 43.4604 34.7123ZM36.2832 22.1897C38.1381 27.0085 30.3852 29.3753 27.9248 30.3384L24.5708 21.8642C27.0312 20.9011 34.2797 17.1618 36.2832 22.1897Z" fill="white"/>
</svg>
