<svg width="38" height="44" viewBox="0 0 38 44" fill="none" xmlns="http://www.w3.org/2000/svg">
<path fill-rule="evenodd" clip-rule="evenodd" d="M25.3881 4.91379C24.9891 4.75206 24.622 4.79821 24.2868 5.05224L7.63883 15.7533C7.37147 15.8398 7.20385 15.9669 7.10202 16.218C6.9323 16.6367 7.12968 17.0092 7.46074 17.3383L15.7268 27.0261C16.0239 27.439 16.5226 27.6412 17.0233 27.5518L29.8017 26.3956C30.0351 26.3927 30.4362 26.2628 30.4362 26.2628L30.5699 26.2195L30.7035 26.1762L30.7375 26.0925C30.7714 26.0088 30.8393 25.8413 30.8393 25.8413L30.8733 25.7576C30.8733 25.7576 30.8393 25.8413 30.8733 25.7576C30.8733 25.7576 30.9093 25.3823 30.8435 25.2581L26.2815 5.86092C26.1181 5.40472 25.787 5.07553 25.3881 4.91379ZM7.36982 20.7135C6.67167 20.4305 6.03512 20.8549 6.03093 21.4381C6.03093 21.4381 6.03093 21.4381 5.99699 21.5218C5.99699 21.5218 5.99699 21.5218 5.96304 21.6055C5.9291 21.6893 6.02884 21.7297 5.99489 21.8134L11.1825 37.6622C11.3439 38.4101 12.3412 38.8144 12.8781 38.3496L27.8053 30.4606C28.7093 29.9496 27.9855 28.5839 26.8842 28.7223L15.3069 29.7805L7.83456 20.9994C7.76877 20.8753 7.5693 20.7944 7.36982 20.7135Z" fill="white"/>
</svg>
