<svg width="138" height="117" fill="none" xmlns="http://www.w3.org/2000/svg"><g filter="url(#a)"><circle cx="90.79" cy="25.8" fill="#FF802C" fill-opacity=".16" r="90.63"/></g><path d="M108.93-3.26c-4.97-8.17-13.83-7.6-23.46-4.07l-5.72-11.93-7.24 3.62 5.43 11.58c-1.85.94-3.7 1.88-5.87 2.78l-5.58-11.75-7.06 3.47 5.72 11.93-14.62 7.05 3.73 7.73s5.38-2.67 5.21-2.53c3-1.3 4.82-.17 5.65 1.2l15.54 32.75c.22.98.53 2.77-1.64 3.68.14.17-5.21 2.53-5.21 2.53l2.77 9.4 14.76-6.88 5.86 12.1 7.38-3.43-5.72-11.93c2-.77 4.02-1.85 5.88-2.79l5.72 11.93 7.38-3.43-5.72-11.94c11.84-6.52 19.1-13.65 14.5-25.63-3.54-9.64-9.9-11.7-17.59-10.06 2.68-4.54 3.64-9.4-.1-15.38Zm2.14 30.63c4.24 9.07-11.59 15.36-16.62 17.75l-7.58-15.96c4.9-2.56 19.67-11.2 24.2-1.79ZM96.95 6.3c3.84 8.23-9.47 13.32-13.66 15.31L76.37 7.15c4.2-1.99 16.45-9.43 20.58-.86Z" fill="#fff"/><defs><filter id="a" x="-38.06" y="-103.05" width="257.69" height="257.7" filterUnits="userSpaceOnUse" color-interpolation-filters="sRGB"><feFlood flood-opacity="0" result="BackgroundImageFix"/><feGaussianBlur in="BackgroundImage" stdDeviation="19.11"/><feComposite in2="SourceAlpha" operator="in" result="effect1_backgroundBlur"/><feBlend in="SourceGraphic" in2="effect1_backgroundBlur" result="shape"/></filter></defs></svg>
