<svg width="183" height="25" viewBox="0 0 183 25" fill="none" xmlns="http://www.w3.org/2000/svg">
<path d="M55.0334 0H46.6613V24.2815H55.0334V0Z" fill="#43465D"/>
<path d="M44.3307 0H37.1938V24.2815H44.3307V0Z" fill="#43465D"/>
<path d="M33.3493 0H28.2711V24.2815H33.3493V0Z" fill="#43465D"/>
<path d="M22.2307 0H18.5251V24.2815H22.2307V0Z" fill="#43465D"/>
<path d="M11.1174 0H9.60767V24.2815H11.1174V0Z" fill="#43465D"/>
<path d="M1.2148 0.000488281H0V24.282H1.2148V0.000488281Z" fill="#43465D"/>
<path d="M76.9114 15.3516C76.9114 14.9019 76.7521 14.5553 76.4336 14.3118C76.1198 14.0682 75.5507 13.8223 74.7264 13.5741C73.902 13.3258 73.2463 13.0495 72.7592 12.745C71.8271 12.1596 71.361 11.3961 71.361 10.4546C71.361 9.63027 71.6959 8.95111 72.3657 8.41715C73.0402 7.88319 73.9137 7.61621 74.9863 7.61621C75.6983 7.61621 76.3329 7.74736 76.8903 8.00965C77.4477 8.27195 77.8856 8.64666 78.2041 9.13378C78.5226 9.61622 78.6819 10.1525 78.6819 10.7427H76.9114C76.9114 10.2087 76.7428 9.79186 76.4055 9.49209C76.073 9.18764 75.5952 9.03542 74.9723 9.03542C74.3915 9.03542 73.9395 9.15954 73.6163 9.40779C73.2978 9.65603 73.1385 10.0026 73.1385 10.4476C73.1385 10.8223 73.3118 11.1361 73.6585 11.3891C74.0051 11.6373 74.5765 11.8809 75.3727 12.1197C76.169 12.3539 76.8083 12.6233 77.2908 12.9277C77.7732 13.2275 78.1268 13.5741 78.3517 13.9675C78.5765 14.3563 78.6889 14.813 78.6889 15.3375C78.6889 16.19 78.361 16.8692 77.7053 17.375C77.0542 17.8762 76.169 18.1268 75.0496 18.1268C74.3095 18.1268 73.628 17.9909 73.0051 17.7193C72.3868 17.4429 71.9043 17.0635 71.5577 16.5811C71.2158 16.0987 71.0449 15.5366 71.0449 14.8949H72.8224C72.8224 15.4757 73.0144 15.9254 73.3985 16.2439C73.7826 16.5624 74.3329 16.7216 75.0496 16.7216C75.6678 16.7216 76.1315 16.5975 76.4407 16.3493C76.7545 16.0963 76.9114 15.7638 76.9114 15.3516Z" fill="#43465D"/>
<path d="M90.8033 14.1853V17.9863H89.0258V7.75673H92.9392C94.082 7.75673 94.9884 8.05415 95.6581 8.649C96.3326 9.24385 96.6699 10.0307 96.6699 11.0097C96.6699 12.012 96.3396 12.7919 95.6792 13.3492C95.0235 13.9066 94.1031 14.1853 92.9181 14.1853H90.8033ZM90.8033 12.7591H92.9392C93.5715 12.7591 94.0539 12.6115 94.3865 12.3165C94.719 12.0167 94.8853 11.5858 94.8853 11.0237C94.8853 10.471 94.7167 10.0307 94.3795 9.70287C94.0422 9.37031 93.5785 9.19935 92.9883 9.18999H90.8033V12.7591Z" fill="#43465D"/>
<path d="M111.482 15.6045H107.52L106.691 17.9863H104.843L108.707 7.75673H110.302L114.173 17.9863H112.318L111.482 15.6045ZM108.018 14.1713H110.983L109.501 9.92769L108.018 14.1713Z" fill="#43465D"/>
<path d="M130.665 9.18999H127.475V17.9863H125.711V9.18999H122.55V7.75673H130.665V9.18999Z" fill="#43465D"/>
<path d="M142.667 17.9863H140.896V7.75673H142.667V17.9863Z" fill="#43465D"/>
<path d="M161.111 7.75673V14.5928C161.111 15.6795 160.762 16.5413 160.064 17.1783C159.371 17.8106 158.446 18.1268 157.289 18.1268C156.118 18.1268 155.188 17.8153 154.5 17.1924C153.811 16.5647 153.467 15.6959 153.467 14.5858V7.75673H155.238V14.5998C155.238 15.2837 155.411 15.8059 155.758 16.1666C156.104 16.5272 156.615 16.7076 157.289 16.7076C158.657 16.7076 159.341 15.9863 159.341 14.5436V7.75673H161.111Z" fill="#43465D"/>
<path d="M174.097 7.75673L177.048 15.5975L179.991 7.75673H182.289V17.9863H180.518V14.6139L180.694 10.1033L177.673 17.9863H176.401L173.387 10.1104L173.563 14.6139V17.9863H171.792V7.75673H174.097Z" fill="#43465D"/>
</svg>
