<svg width="120" height="116" fill="none" xmlns="http://www.w3.org/2000/svg"><g clip-path="url(#clip0)" fill-opacity=".16"><path d="M109.98 116c-2.4-1.77-2.4-27.86-69.14-14.44-21.09 5.32-37.1 9.88-40.84 11.9C6.14 107.65 68.07 56.74 16.55-37c0 0 18.95 12.67 40.04 34.2 4.27 13.68 5.88 28.37 3.47 42.55A81.07 81.07 0 0147.78 70.4c-7.47 11.4-7.47 13.94-17.35 23.3l-.53.52c14.95-7.86 20.29-7.6 37.1-11.15 1.34-.25 2.4-.5 3.74-.76a113.97 113.97 0 0118.69-2.28c3.2 0 6.4 0 9.6.25.8 0 7.22.26 7.48 1.27 2.67 10.64 4 22.3 3.47 34.45z" fill="#F10505"/><path d="M118.26 83.83c0-1.27-4.27-3.3-5.34-3.8a31.7 31.7 0 00-8.28-2.79 75.98 75.98 0 00-20.02-1.01c-8.27.5-16.55 2.03-24.29 4.05-3.47 1.02-6.94 1.78-10.41 2.79-1.34.5-2.67.76-4.27 1.27-.8.25-2.94.5-3.47 1A86.36 86.36 0 0059.8 55.98c5.34-15.46 6.4-31.67 2.67-48.9-1.87-9.11-5.08-18.23-9.35-27.86a217.64 217.64 0 0140.85 42.3 44.85 44.85 0 01-14.95 39.52c-1.6 1.27-2.94 2.79-4.54 4.05-.8.76-1.87 2.03-2.94 2.8 4-2.04 8.01-4.32 12.28-5.84 9.08-3.03 18.96-5.57 28.3-5.57a88.6 88.6 0 016.14 27.36z" fill="#F24405"/><path d="M126 57.74c-1.6-1.52-4-3.04-8.27-3.8-.8-.25-1.87-.25-2.94-.25h-2.94c-3.73 0-8.54.5-14.41 1.77-.54.25-1.34.25-1.87.5-4.54 1.27-7.74 2.03-10.15 2.8a57.12 57.12 0 006.68-9.63 60.15 60.15 0 002.67-6.08 49.98 49.98 0 002.67-16.72c0-1.78-.27-3.8-.54-5.57-.26-2.03-.53-3.8-1.06-5.83A82.84 82.84 0 0091.3 2c10.14 7.85 33.1 28.62 34.7 55.73z" fill="#F27405"/></g><defs><clipPath id="clip0"><path fill="#fff" transform="translate(0 -37)" d="M0 0h126v153H0z"/></clipPath></defs></svg>
